<svg id="f282409f-7d82-4f81-869a-0ad9d854b0df" data-name="Layer 2" xmlns="http://www.w3.org/2000/svg" viewBox="0 0 4551.17 1336.11"><path d="M1987.67,1242.67c71.86-162.81,91.45-489.08-164.75-466.86C1994.7,827.75,2008.43,1122.16,1987.67,1242.67Z" transform="translate(-220.11 -238.61)" style="fill:#00ff95"/><path d="M1593,1451.8c54.2-46.54,87-99.69,63.61-170.21-14.41-34.7-38.66-74.25-46.7-139.82-225.72,220.25-81.34,236-27.64,307.16,7-55.44,19.89-78.2,9.67-179.24C1597.29,1334.77,1611.48,1352.12,1593,1451.8Z" transform="translate(-220.11 -238.61)" style="fill:#00ff95"/><path d="M2694.5,1094.17c-115.49-37.27-201.86,17-277.15,106.18,162.57-31.48,191.11-8.53,297.46-.73-243.26-22.58-454.72,43.53-672.43,175.16-235.45,142.34-418,109.89-466.37,13.87,2.66,174.22,305.15,182,478.73,40.74,80-54.08,369.88-219.21,432.12-145.41,77.65,92,153.6,179.48,436.65-115.4C2816.31,1156.33,2751.39,1117.24,2694.5,1094.17Z" transform="translate(-220.11 -238.61)" style="fill:#00ff95"/><path d="M1699.85,994.15c-208.84,205.5,71.92,225.44,61.59,274.14-10.21,48.19-51,86.54-125.68,115.84-83.82,32.88-235.16,38.21-391.39,9.8C1062.88,1360.15,863.09,1291.59,681,1196.3c106.42,126.14,241,252.28,375.5,378.43l94.17-88.35-59-25.78c169.14,42.05,712.88,97.58,709-178.47-.93-65.77-28.86-152.46-73.69-189.23,38.25,26.7,65.18,70.79,80.53,157.63C1948.17,1099.11,1732,1098.51,1699.85,994.15Z" transform="translate(-220.11 -238.61)" style="fill:#00ff95;fill-rule:evenodd"/><path d="M429.33,912.63c41.06,34.24,87.84,68.53,140.18,102.27q31.41,21.84,66.3,43.34c120.54,74.29,255.14,134.78,388.1,178L867.4,920.87Z" transform="translate(-220.11 -238.61)" style="fill:#ff3e7e;fill-rule:evenodd"/><path d="M1341.31,1088l-139.1-462.12-177.53,610.61c106.87,34.68,212.65,58.19,309.18,68.68,100.48-105.37,187-210.78,243.06-316.14,4.07-7.66,125.29-17.94,209.23-24.57H1432.48Z" transform="translate(-220.11 -238.61)" style="fill:#ff3e7e;fill-rule:evenodd"/><path d="M1613.42,909l.27-.72c20.15-53.73,31.36-107.47,31.36-161.2,0-152.3-131.83-275.9-294.26-275.9-57.78,0-104.2,10.63-143.75,31.89l152.13,504.88L1415,933.15l449.82,24.67h0C1826.05,955.68,1607.92,923.61,1613.42,909Z" transform="translate(-220.11 -238.61)" style="fill:#ff3e7e;fill-rule:evenodd"/><path d="M1056.5,678.07c-73.57-138-147.13-206.91-294.28-206.91C599.79,471.16,468,594.76,468,747.06c0,13.4-.36,20.18,1.32,33.52,2.42,19.34,65.6,73.12,66.23,77.9,1.22,9.1-395.08-304.45-88.29-424.84,46.8-18.36,104.71-27.9,170.15-29.46-105.83-5.58-198.91,4.37-269.58,32.11C147.75,514.78,189.72,710.82,425,909l465.16-22.61,121.67,252.54L1198,508.17C1141.4,541.84,1099,598.46,1056.5,678.07Z" transform="translate(-220.11 -238.61)" style="fill:#ff3e7e;fill-rule:evenodd"/><text transform="translate(1929.37 769.32) scale(1.17 1)" style="font-size:922.4447021484375px;fill:#333;font-family:BlacklightD">HIMS</text></svg>