<svg xmlns="http://www.w3.org/2000/svg" xmlns:xlink="http://www.w3.org/1999/xlink" viewBox="0 0 920 1480"><defs><linearGradient id="a5ad4399-8375-4e24-bb2b-475892ea0dc6" x1="-6812.4" y1="1309.49" x2="-6735.35" y2="1111.14" gradientTransform="matrix(-1, 0, 0, 1, -6236.32, 0)" gradientUnits="userSpaceOnUse"><stop offset="0" stop-color="#febbba"/><stop offset="1" stop-color="#ff928e"/></linearGradient><linearGradient id="a5545309-3d20-41ab-abce-58b802a8e7a3" x1="-6813.57" y1="1947.49" x2="-6558.92" y2="-1028.79" xlink:href="#a5ad4399-8375-4e24-bb2b-475892ea0dc6"/><linearGradient id="a5ebd611-81fb-41a6-abf0-52764f3a7db1" x1="-6804.42" y1="995.7" x2="-6771.76" y2="995.7" xlink:href="#a5ad4399-8375-4e24-bb2b-475892ea0dc6"/><linearGradient id="b971f8a9-c559-4e7e-a6de-506614007796" x1="-6768.75" y1="922.84" x2="-6745.56" y2="922.84" xlink:href="#a5ad4399-8375-4e24-bb2b-475892ea0dc6"/><linearGradient id="bdce2bd6-0c0e-4586-a30c-ef944e9e94d9" x1="801.98" y1="890.35" x2="706.9" y2="921.57" gradientUnits="userSpaceOnUse"><stop offset="0" stop-color="#ff928e"/><stop offset="1" stop-color="#fe7062"/></linearGradient><linearGradient id="e07fa195-76c5-432a-8965-8e8ab6d2344a" x1="-6632.66" y1="936.06" x2="-6833.27" y2="1050.98" xlink:href="#a5ad4399-8375-4e24-bb2b-475892ea0dc6"/><linearGradient id="bb044759-603d-41ce-b35d-c2c8e43dc09d" x1="-6612.73" y1="970.85" x2="-6813.34" y2="1085.78" xlink:href="#a5ad4399-8375-4e24-bb2b-475892ea0dc6"/><linearGradient id="b0cb3965-27ab-4c1f-9f7d-0f078fa23286" x1="-6730.12" y1="922.83" x2="-6775.19" y2="856.92" xlink:href="#a5ad4399-8375-4e24-bb2b-475892ea0dc6"/><linearGradient id="bdf91d89-a1a9-4cba-b065-28d775dc77bc" x1="-261.32" y1="9719.76" x2="-126.48" y2="9719.76" gradientTransform="translate(-8558.82 5367.11) rotate(-116.39)" xlink:href="#bdce2bd6-0c0e-4586-a30c-ef944e9e94d9"/><linearGradient id="fc25f1cd-ac8c-46c3-a5ee-bffe1db5c3ba" x1="-119.74" y1="9686.77" x2="-111.73" y2="9686.77" gradientTransform="translate(-8558.82 5367.11) rotate(-116.39)" xlink:href="#bdce2bd6-0c0e-4586-a30c-ef944e9e94d9"/><linearGradient id="f2c05586-c27b-4cad-8d84-eb8f30a78fb8" x1="-77.26" y1="9746.51" x2="-71.73" y2="9746.51" gradientTransform="translate(-8558.82 5367.11) rotate(-116.39)" xlink:href="#bdce2bd6-0c0e-4586-a30c-ef944e9e94d9"/><linearGradient id="bb245e99-e4d7-4ad6-ab35-9ef386461a59" x1="-209.28" y1="9805.95" x2="-70.27" y2="9805.95" gradientTransform="translate(-8558.82 5367.11) rotate(-116.39)" xlink:href="#bdce2bd6-0c0e-4586-a30c-ef944e9e94d9"/><linearGradient id="b8795cca-1762-4438-b2c9-a68123bdb5f3" x1="-223.46" y1="9832.76" x2="-215.55" y2="9832.76" gradientTransform="translate(-8558.82 5367.11) rotate(-116.39)" xlink:href="#bdce2bd6-0c0e-4586-a30c-ef944e9e94d9"/><linearGradient id="fff78b42-1bc7-4ffc-b190-2f82a7de78c0" x1="-341.21" y1="9827.5" x2="-337.25" y2="9827.5" gradientTransform="translate(-8558.82 5367.11) rotate(-116.39)" xlink:href="#bdce2bd6-0c0e-4586-a30c-ef944e9e94d9"/><linearGradient id="b8f2ea12-5f75-44f0-9841-ded62f0ab930" x1="-343.05" y1="9785.7" x2="-267.96" y2="9785.7" gradientTransform="translate(-8558.82 5367.11) rotate(-116.39)" xlink:href="#bdce2bd6-0c0e-4586-a30c-ef944e9e94d9"/><linearGradient id="eb64446a-8c83-4784-8bab-4b992b265270" x1="-308" y1="9857.61" x2="-221.52" y2="9857.61" gradientTransform="translate(-8558.82 5367.11) rotate(-116.39)" xlink:href="#bdce2bd6-0c0e-4586-a30c-ef944e9e94d9"/><linearGradient id="a3db0fee-dac4-47cb-98c2-1b06fa0f527c" x1="-317.67" y1="9861.68" x2="-311.68" y2="9861.68" gradientTransform="translate(-8558.82 5367.11) rotate(-116.39)" xlink:href="#bdce2bd6-0c0e-4586-a30c-ef944e9e94d9"/></defs><g id="f6cf1dc0-6391-413f-800e-e15f8e393310" data-name="Background"><rect width="920" height="1480" style="fill:#f3fffc"/><path d="M917.89,0H84.38C76.65,57.37,123,105.1,174.79,110.78c34.65,3.8,69.21-5.76,103.33-13.73s69.73-14.35,103.44-4.36,65.09,40.4,69,80c2.12,21.72-4,43.25-6.31,65-9,84.65,50.43,171,124.44,180.81,34.93,4.65,70-5.64,105.13-6.95S748.3,421,767,455c22.71,41.33,5,95.65-16.95,137.5S701,678.53,706.31,727c10.24,93.68,129.13,126.08,149.1,217.68,6,27.56,1.84,56.49-1.71,84.6s-6.33,57.59,2.19,84.26,31.83,49.33,56.34,44.94a35.2,35.2,0,0,0,5.66-1.5Z" style="fill:#b3ffe9;opacity:0.25"/></g><g id="b3768e11-0b9d-419c-8d55-5ebac0faf3cd" data-name="Illustration" style="opacity:0.6"><path d="M687.34,1236.09c-12.09,12.58-23.53,20.69-32.57,27.09-106.25,75.31-232,53.36-258.69,48-39.45-7.92-115.72-23.22-170.86-87.27-83.42-96.92-70.43-249.6-5.72-350.39,11.84-18.43,74.36-120.76,201.43-137.17,76.9-9.93,166.54,10.1,231.46,63.83C788.66,913,779,1140.81,687.34,1236.09Z" style="fill:#c2ffe8"/><path d="M462.57,1295.68s116-293.09,288.37-325.11a4.83,4.83,0,0,1,5.7,5C754.89,1011.71,732.82,1203,462.57,1295.68Z" style="fill:#2bd680"/><path d="M720,1018.11c-8.8,12.56-18,24.79-27.37,36.92-2.34,3-4.72,6-7.08,9.06s-4.7,6-7.12,9l-7.23,8.93c-2.42,3-4.79,6-7.27,8.9-4.92,5.87-9.8,11.78-14.76,17.61l-15,17.37c-10.21,11.42-20.41,22.86-30.93,34l-7.83,8.41c-2.57,2.83-5.31,5.52-8,8.29l-16,16.52L555,1209.25c-2.74,2.68-5.45,5.39-8.24,8l-8.46,7.79c-5.65,5.18-11.24,10.43-17,15.5l-17.46,15-4.39,3.72c-1.47,1.22-2.9,2.5-4.41,3.68l-9,7.13c-3,2.39-6,4.72-9.06,7.08s-6,4.71-9.09,7a.53.53,0,0,1-.74-.1.54.54,0,0,1,.07-.73h0q4.37-3.74,8.76-7.43c2.93-2.46,5.83-4.94,8.78-7.38l8.83-7.33c2.9-2.49,5.72-5.08,8.61-7.59l17.27-15.09,16.92-15.5,8.47-7.74c1.41-1.29,2.76-2.64,4.15-4l4.15-4,16.6-15.85c10.79-10.84,21.77-21.51,32.19-32.72,5.27-5.55,10.59-11,15.68-16.76s10.31-11.32,15.4-17l15.09-17.3c5-5.81,9.88-11.69,14.82-17.54,2.49-2.9,4.87-5.9,7.3-8.86l7.26-8.9c2.42-3,4.76-6,7.14-9s4.77-6,7.11-9c9.34-12.13,18.55-24.37,27.32-36.89h0a.53.53,0,0,1,.87.61Z" style="fill:#fff;opacity:0.62"/><path d="M434.46,1127.59s56.4-258.82,226.66-393a3.88,3.88,0,0,1,6.18,2.1C678,780.05,733.78,1056.47,434.46,1127.59Z" style="fill:#6cffbc"/><path d="M643,809.27c-1.95,7.51-4.23,14.91-6.63,22.27s-4.93,14.68-7.61,22q-8.09,21.78-17.57,43c-1.57,3.54-3.23,7-4.83,10.56s-3.36,7-5,10.48-3.46,6.93-5.21,10.38l-2.64,5.18-2.73,5.13c-7.28,13.68-14.94,27.16-23.21,40.27s-16.9,26-26.19,38.41c-1.15,1.56-2.28,3.13-3.45,4.68l-3.56,4.59-3.57,4.59c-1.19,1.53-2.35,3.08-3.61,4.56l-7.4,9-1.86,2.24-1.92,2.18-3.85,4.35a452.86,452.86,0,0,1-68,63.11.45.45,0,0,1-.65-.09.45.45,0,0,1,.08-.63h0l9-7.33,4.5-3.64,4.35-3.83,8.69-7.65,8.41-8c1.39-1.34,2.82-2.63,4.19-4l4.07-4.11c2.7-2.76,5.46-5.46,8.11-8.26,5.21-5.69,10.55-11.27,15.52-17.18l3.78-4.38,1.89-2.18,1.83-2.25,7.32-9c1.24-1.48,2.39-3,3.57-4.55l3.53-4.58,3.54-4.59c1.15-1.54,2.27-3.11,3.41-4.67,9.2-12.39,17.73-25.26,25.94-38.33s16-26.43,23.25-40l2.74-5.1,2.65-5.15c1.75-3.43,3.55-6.85,5.22-10.33,3.43-6.91,6.74-13.89,10-20.89q9.71-21,18-42.67c2.81-7.2,5.46-14.45,8-21.75q1.91-5.46,3.68-11T642.15,809h0a.46.46,0,0,1,.57-.32A.47.47,0,0,1,643,809.27Z" style="fill:#fff;opacity:0.62"/><path d="M346,1113.7S324,884.11,190.66,750.51a3.38,3.38,0,0,0-5.57,1.17C171.35,788,94.55,1021.26,346,1113.7Z" style="fill:#6cffbc"/><path d="M199.42,816.81c2.28,13.24,5.22,26.38,8.59,39.4s7,25.95,11.18,38.74c2.1,6.38,4.24,12.75,6.49,19.08,1.08,3.18,2.29,6.32,3.45,9.47l1.76,4.72,1.84,4.69c4.91,12.51,10.19,24.87,16,37s11.77,24.16,18.44,35.81c.83,1.47,1.63,2.94,2.47,4.39l2.58,4.33,2.57,4.33c.87,1.44,1.7,2.9,2.62,4.3l5.4,8.51,1.34,2.13,1.41,2.08,2.82,4.18c3.67,5.63,7.7,11,11.61,16.46,2,2.69,4.11,5.32,6.15,8l3.09,4c1,1.32,2.15,2.58,3.21,3.88l6.43,7.77,6.71,7.52,3.36,3.75,3.51,3.63,7,7.27h0a.45.45,0,0,1,0,.65.47.47,0,0,1-.64,0,392.74,392.74,0,0,1-52.38-61.55l-2.88-4.17-1.44-2.08-1.38-2.12-5.48-8.52c-.93-1.41-1.78-2.87-2.65-4.31l-2.61-4.34-2.61-4.34c-.85-1.46-1.66-2.94-2.5-4.4-6.75-11.7-12.87-23.74-18.69-35.92s-11-24.66-15.89-37.24l-1.84-4.72-1.74-4.75c-1.15-3.17-2.35-6.32-3.43-9.52s-2.23-6.37-3.27-9.58-2.08-6.41-3.07-9.64c-7.93-25.78-14.51-52-18.4-78.73a.47.47,0,0,1,.92-.15Z" style="fill:#fff;opacity:0.62"/><path d="M227.75,764.16c-1.91,90.1-8.1,400.87-5.15,511,.31,11.67,8.31,21,18.28,21.41,49.33,1.89,230.15,6.68,310.83,2.72,16.8-.83,30.17-16.75,30.52-36.42,1.67-94.57,5.37-360.55-3.42-482.4-1-14.6-10.85-26.22-23.31-27.68-53.72-6.29-235.32-21.65-305-16.36C237.91,737.38,228.06,749.43,227.75,764.16Z" style="fill:#001e72"/><path d="M249.76,791.8c-2.66,72.72-11,314.65-8.38,404.11.39,13.07,9.2,23.64,20.37,24.41,46,3.15,202.8,10.08,270.22,3.77,12.14-1.14,21.67-12.63,22.33-26.85,3.41-74.19,13.22-299.46,10.68-387.92-.41-14.11-9.75-25.63-21.78-26.89-49.73-5.23-216.38-17.66-273.68-14C258.77,769.12,250.21,779.21,249.76,791.8Z" style="fill:#3ac19a"/><path d="M373.06,754.3h0c0,2.76,1.84,5,4.2,5.19,11.65.71,44.47,2.73,59.14,3.73,2.89.19,5.16-2.85,4.61-6.17l-.09-.57a4.76,4.76,0,0,0-3.95-4.19c-9.92-1.07-39.83-4-59.65-3.19C374.93,749.2,373.06,751.51,373.06,754.3Z" style="fill:#6cffbc"/><circle cx="395.99" cy="875.52" r="68.8" style="fill:#038e4f"/><path d="M417.05,849.53c0,11.65-9.44,24.22-21.09,24.22s-21.1-12.57-21.1-24.22,9.45-19.92,21.1-19.92S417.05,837.88,417.05,849.53Z" style="fill:#fff"/><path d="M369.78,918.61h51.49a12.47,12.47,0,0,0,11.87-8.67l2.77-8.66a12.45,12.45,0,0,0-7.52-15.49c-20.95-7.67-42.62-6.68-64.82.7a12.41,12.41,0,0,0-7.95,15l2.13,7.86A12.46,12.46,0,0,0,369.78,918.61Z" style="fill:#fff"/><g style="opacity:0.71"><rect x="275.46" y="1015.14" width="253.87" height="39.06" rx="6.75" style="fill:#fff;opacity:0.65"/><rect x="274.09" y="1078.87" width="253.87" height="39.06" rx="6.75" style="fill:#fff;opacity:0.65"/><rect x="315.26" y="1144.13" width="164" height="49.79" rx="8.33" style="fill:#fff;opacity:0.65"/></g><rect x="286.71" y="1023.99" width="151.21" height="21.7" rx="10.85" style="fill:#fff;opacity:0.75"/><g style="opacity:0.75"><circle cx="291.96" cy="1097.31" r="8.91" style="fill:#fff"/><circle cx="316.4" cy="1097.77" r="8.91" style="fill:#fff"/><circle cx="339.92" cy="1098.91" r="8.91" transform="translate(-807.69 1177.26) rotate(-76.72)" style="fill:#fff"/><circle cx="364.37" cy="1099.36" r="8.91" style="fill:#fff"/><circle cx="388.81" cy="1099.14" r="8.91" style="fill:#fff"/><circle cx="413.25" cy="1099.59" r="8.91" style="fill:#fff"/></g><path d="M515,1128.67l27.29,6.82-6.82,51.18s10.24,10.23,13.65,23.88,6.55,70.94,6.55,70.94l6.48,3.91.79,3.27L544.07,1314l3.12-20.16c.5-3.2-.36-9.69-.09-9.83C536.87,1256.72,515,1179.84,515,1179.84Z" style="fill:url(#a5ad4399-8375-4e24-bb2b-475892ea0dc6)"/><path d="M507,1289c.29,0,.59,0,.88,0-1.32-16.45-7.34-88.86-13.37-116-6.83-30.7,10.23-92.11,10.23-92.11l30.7,30.7-17.05,58c11.68,17.53-1.91,120.21-1.62,120.17l0,.23,4.45,6.12-.54,3.31-27.19,16,10.7-17.38A19.44,19.44,0,0,0,507,1289Z" style="fill:url(#a5545309-3d20-41ab-abce-58b802a8e7a3)"/><path d="M541.53,944.75s59.78,67.37,0,101.91l-6.09-4.41s29.68-28.42,0-63.21Z" style="fill:url(#a5ebd611-81fb-41a6-abf0-52764f3a7db1)"/><path d="M491.68,1318h8.68a5.24,5.24,0,0,0,4.15-2c2.7-3.51,8.3-10.37,11-10.55,3.61-.24,3.15,12.58,3.15,12.58h2l2.56-15.93a9.43,9.43,0,0,0-5-9.86h0s-.82,6.1-5.29,8.79-18.2,12.36-18.2,12.36a12.42,12.42,0,0,0-3.52.09A2.29,2.29,0,0,0,491.68,1318Z" style="fill:#ff367f"/><path d="M543.39,1317l8-3.36a5.2,5.2,0,0,0,3-3.48c1.13-4.29,3.64-12.78,6-14,3.23-1.62,7.78,10.38,7.78,10.38l1.86-.78-3.81-15.68a9.42,9.42,0,0,0-8.39-7.17h0s1.6,5.94-1.47,10.16-12,18.44-12,18.44a12.24,12.24,0,0,0-3.21,1.46A2.29,2.29,0,0,0,543.39,1317Z" style="fill:#ff367f"/><path d="M496.92,1029s1,6.15-.47,23-8.49,56.6-7.06,94.57c0,0,20,4.65,54.68,2.45,0,0,14.64-59.29,11.08-81.83s-22.93-38.71-22.93-38.71Z" style="fill:#038e4f"/><polygon points="511.68 916.04 509.24 944.75 532.43 944.75 526.67 900.92 511.68 916.04" style="fill:url(#b971f8a9-c559-4e7e-a6de-506614007796)"/><path d="M539.31,940.78c-8-.45-25.91-1.26-38.59-.57a14.73,14.73,0,0,0-13.63,11.7L484,966.73a35.6,35.6,0,0,0,.5,16.67l12.42,45.6s11.05,6.64,35.3-.47c0,0,21.3-50.79,12.58-83.28A6,6,0,0,0,539.31,940.78Z" style="fill:url(#bdce2bd6-0c0e-4586-a30c-ef944e9e94d9)"/><path d="M487.7,949.25c-3.42,9-6.51,18.44-9.82,27.27-1.69,4.43-3.4,8.76-5.23,12.75-.92,2-1.94,3.8-2.87,5.45a24.58,24.58,0,0,1-2.53,3.63c-.11.09.25.16.37.17s-2.31.39-3,.51l-2.86,0a99.66,99.66,0,0,1-13.37-1.83c-9.38-1.75-19.13-4.21-29.14-6.06l-.08,0a3.53,3.53,0,0,0-3,6.12,102.91,102.91,0,0,0,12.76,9.31c2.23,1.37,4.51,2.71,6.82,4s4.71,2.42,7.17,3.54a83.83,83.83,0,0,0,15.92,5.41c1.55.25,3.07.52,4.66.74a52.23,52.23,0,0,0,5.35.1c1-.1,2.08-.22,3.11-.38a11.52,11.52,0,0,0,1.63-.29c.71-.21,1.42-.45,2.12-.71a22.7,22.7,0,0,0,3.59-1.82c1-.65,1.88-1.33,2.75-2a36.88,36.88,0,0,0,7-8.07,63.55,63.55,0,0,0,4.4-7.78,105.76,105.76,0,0,0,6-15.28A142.28,142.28,0,0,0,505.76,953a9.29,9.29,0,0,0-17.94-4.1Z" style="fill:url(#e07fa195-76c5-432a-8965-8e8ab6d2344a)"/><path d="M422.36,995.7l-4.14-9.82-21.79-5.43s-1.74,3.78,7.41,5.43c0,0-3.27,3.61-1.53,7.86S422.57,1002.24,422.36,995.7Z" style="fill:url(#bb044759-603d-41ce-b35d-c2c8e43dc09d)"/><path d="M501.86,882.88c-.83.49-7.35,23.51-1.89,33.16s22.17-1.16,26.7-15.12S523.92,869.87,501.86,882.88Z" style="fill:url(#b0cb3965-27ab-4c1f-9f7d-0f078fa23286)"/><path d="M545.14,900.92c3.75,18.36,16.16,13.33,25,21.5,14.24,13.23,34.62-.41,54.44,12.13,14.3,9.05,21.19,32.21,14.33,50.91-9.51,25.9-42,36.55-58.84,28.66-16.09-7.54-13.8-30.11-35.45-38.84-9.19-3.7-13.72-1.3-19.23-6.79-9.64-9.61-7-28.26-6-35.45,2.17-15.59,7.4-18.41,4.9-25.27-4.86-13.32-27.53-10.57-29.42-20C493.07,879.22,509.5,863,525,865.54,548.89,869.5,543.47,892.75,545.14,900.92Z" style="fill:#001e72"/><path d="M631.71,981.08a.63.63,0,0,0,.61-.48c3.06-12.72,1.67-23.15-4.13-31-9.63-13-28.36-14.32-28.55-14.33a.63.63,0,0,0-.66.59.63.63,0,0,0,.59.66c.18,0,18.34,1.27,27.62,13.84,5.57,7.53,6.89,17.61,3.91,29.94a.63.63,0,0,0,.47.76Z" style="fill:#fff;opacity:0.6000000000000001"/><path d="M570.39,992.72h.08a.31.31,0,0,0,.22-.39c-3-11.44-8.22-19.39-15.55-23.63-5.34-3.08-10.34-3.36-14.75-3.62s-7.93-.45-10.89-3.08c-6.11-5.43-5.75-18.5,1.06-38.84a.31.31,0,0,0-.2-.39.31.31,0,0,0-.4.2c-6.9,20.59-7.19,33.88-.87,39.5,3.12,2.77,6.89,3,11.26,3.24s9.26.53,14.47,3.54c7.19,4.14,12.33,12,15.27,23.24A.31.31,0,0,0,570.39,992.72Z" style="fill:#fff;opacity:0.72"/><path d="M536.28,896.37a.2.2,0,0,0,.1,0,.31.31,0,0,0,.2-.39c-2.38-7.06-9.21-6-16.45-4.9-4.58.71-9.32,1.43-13.34.24-3-.88-4.77-2.26-5.29-4.09-.88-3.11,2.2-6.59,2.23-6.62a.31.31,0,0,0-.46-.42c-.14.15-3.34,3.76-2.37,7.21.57,2,2.5,3.57,5.72,4.52,4.15,1.23,9,.5,13.61-.22,7.26-1.11,13.55-2.08,15.75,4.48A.32.32,0,0,0,536.28,896.37Z" style="fill:#fff;opacity:0.72"/><g style="opacity:0.30000000000000004"><path d="M308.93,1255.19a2.47,2.47,0,0,1-.82,3.1c-2.19,1.46-4.48,2.84-6.79,4.1a2.26,2.26,0,0,1-3.1-1l0,0a2.47,2.47,0,0,1,1-3.21c2.19-1.2,4.36-2.51,6.44-3.9a2.24,2.24,0,0,1,3.17.75A1.27,1.27,0,0,1,308.93,1255.19Zm-18,9.18a2,2,0,0,1,.11.26,2.43,2.43,0,0,1-1.39,3.08c-2.45.92-5,1.74-7.47,2.43a2.29,2.29,0,0,1-2.81-1.72,2.42,2.42,0,0,1,1.63-3c2.38-.66,4.77-1.43,7.1-2.3A2.25,2.25,0,0,1,291,1264.37Zm-19.47,4.79a2.52,2.52,0,0,1,.23.78,2.38,2.38,0,0,1-2,2.68c-2.58.32-5.21.53-7.81.61a2.41,2.41,0,0,1-.15-4.82c2.47-.08,5-.28,7.41-.58A2.29,2.29,0,0,1,271.48,1269.16Zm-20,.09a2.59,2.59,0,0,1,.23,1.33,2.34,2.34,0,0,1-2.53,2.14c-2.59-.3-5.2-.71-7.75-1.24a2.43,2.43,0,0,1-1.82-2.83,2.31,2.31,0,0,1,2.7-1.91c2.42.5,4.9.9,7.36,1.18A2.31,2.31,0,0,1,251.47,1269.25Zm-19.54-4.59a2.55,2.55,0,0,1,.12,1.85,2.28,2.28,0,0,1-2.92,1.5c-2.46-.89-4.91-1.9-7.3-3a2.47,2.47,0,0,1-1.18-3.18,2.26,2.26,0,0,1,3-1.23c2.27,1.05,4.6,2,6.94,2.86A2.33,2.33,0,0,1,231.93,1264.66Zm-18.1-9a2.49,2.49,0,0,1-.1,2.34,2.23,2.23,0,0,1-3.16.78c-2.21-1.44-4.39-3-6.48-4.63a2.48,2.48,0,0,1-.48-3.37,2.22,2.22,0,0,1,3.21-.5c2,1.55,4.06,3,6.16,4.4A2.36,2.36,0,0,1,213.83,1255.64Zm-42.4-76.7a2.53,2.53,0,0,1,.24,1c.08,2.59.28,5.22.58,7.8a2.39,2.39,0,0,1-2,2.68,2.33,2.33,0,0,1-2.56-2.11c-.32-2.72-.52-5.48-.61-8.21a2.36,2.36,0,0,1,2.21-2.49A2.3,2.3,0,0,1,171.43,1178.94Zm26.66,63.71a2.48,2.48,0,0,1-.42,2.76,2.22,2.22,0,0,1-3.25,0c-1.85-1.92-3.65-3.94-5.34-6a2.5,2.5,0,0,1,.25-3.4,2.21,2.21,0,0,1,3.24.27c1.61,2,3.31,3.9,5.07,5.72A2.23,2.23,0,0,1,198.09,1242.65Zm-23.7-42.91a3,3,0,0,1,.16.45c.64,2.51,1.39,5,2.23,7.47a2.43,2.43,0,0,1-1.39,3.08,2.27,2.27,0,0,1-2.94-1.46c-.88-2.57-1.67-5.21-2.34-7.85a2.42,2.42,0,0,1,1.63-3A2.27,2.27,0,0,1,174.39,1199.74Zm11.11,26.55a2.51,2.51,0,0,1-.82,3.11,2.25,2.25,0,0,1-3.18-.75c-1.39-2.3-2.72-4.7-3.92-7.12l0,0a2.48,2.48,0,0,1,1-3.21,2.25,2.25,0,0,1,3.1,1c1.15,2.3,2.41,4.58,3.74,6.77Z" style="fill:url(#bdf91d89-a1a9-4cba-b065-28d775dc77bc)"/><path d="M172.32,1162a2.55,2.55,0,0,1,.22,1.43c-.18,1.23-.33,2.48-.45,3.72a2.32,2.32,0,0,1-2.53,2.14,2.38,2.38,0,0,1-2-2.65c.13-1.31.29-2.63.47-3.93a2.27,2.27,0,0,1,4.33-.71Z" style="fill:url(#fc25f1cd-ac8c-46c3-a5ee-bffe1db5c3ba)"/></g><g style="opacity:0.30000000000000004"><path d="M208.75,1099.3a2.48,2.48,0,0,1-.72,3c-1,.72-1.93,1.48-2.87,2.24a2.23,2.23,0,0,1-3.23-.42,2.5,2.5,0,0,1,.4-3.39c1-.81,2-1.6,3-2.36a2.23,2.23,0,0,1,3.21.57A3.54,3.54,0,0,1,208.75,1099.3Z" style="fill:url(#f2c05586-c27b-4cad-8d84-eb8f30a78fb8)"/><path d="M340.89,1134.07c.47,1,.93,2,1.37,3a2.46,2.46,0,0,1-1.14,3.2,2.26,2.26,0,0,1-3-1.2c-1-2.35-2.13-4.66-3.31-6.87a2.46,2.46,0,0,1,.88-3.28,2.24,2.24,0,0,1,3.13.93C339.51,1131.24,340.22,1132.65,340.89,1134.07Zm5.64,15a1.74,1.74,0,0,1,.14.38c.74,2.58,1.39,5.22,1.92,7.85a2.41,2.41,0,0,1-1.78,2.85,2.3,2.3,0,0,1-2.72-1.86c-.5-2.5-1.11-5-1.82-7.46a2.44,2.44,0,0,1,1.54-3A2.26,2.26,0,0,1,346.53,1149Zm-14.38-29.8a2.51,2.51,0,0,1-.67,3,2.23,2.23,0,0,1-3.22-.48c-1.47-2-3-4-4.66-5.94a2.49,2.49,0,0,1,.17-3.4,2.23,2.23,0,0,1,3.25.18c1.71,2,3.36,4.12,4.9,6.26A2.14,2.14,0,0,1,332.15,1119.23Zm18,50.15a2.49,2.49,0,0,1,.23.91c.18,2.68.26,5.4.22,8.09a2.33,2.33,0,0,1-2.32,2.37,2.36,2.36,0,0,1-2.27-2.45c0-2.55,0-5.13-.21-7.68a2.38,2.38,0,0,1,2.13-2.58A2.31,2.31,0,0,1,350.1,1169.38Zm-31.49-65.18a2.52,2.52,0,0,1-.31,2.63,2.21,2.21,0,0,1-3.23.28c-1.86-1.65-3.8-3.23-5.79-4.72a2.49,2.49,0,0,1-.54-3.36,2.22,2.22,0,0,1,3.2-.57c2.09,1.56,4.14,3.24,6.09,5A2.41,2.41,0,0,1,318.61,1104.2Zm-16.35-11.56a2.57,2.57,0,0,1,0,2.2,2.24,2.24,0,0,1-3.1,1c-2.16-1.18-4.39-2.29-6.63-3.28a2.46,2.46,0,0,1-1.23-3.16,2.26,2.26,0,0,1,3-1.29c2.36,1.05,4.7,2.21,7,3.46A2.38,2.38,0,0,1,302.26,1092.64Zm-18.35-7.54a2.53,2.53,0,0,1,.16,1.7,2.28,2.28,0,0,1-2.81,1.7c-2.36-.67-4.76-1.24-7.15-1.69a2.42,2.42,0,0,1-1.86-2.81,2.31,2.31,0,0,1,2.67-1.94c2.52.48,5.05,1.08,7.52,1.78A2.34,2.34,0,0,1,283.91,1085.1Zm-19.47-3.16a2.53,2.53,0,0,1,.24,1.17,2.34,2.34,0,0,1-2.39,2.3c-2.43-.11-4.9-.11-7.32,0a2.42,2.42,0,0,1-.21-4.82c2.56-.11,5.15-.11,7.71,0A2.3,2.3,0,0,1,264.44,1081.94Zm-19.65,1.4a2.65,2.65,0,0,1,.2.64,2.39,2.39,0,0,1-1.85,2.8c-2.38.46-4.78,1-7.13,1.69a2.29,2.29,0,0,1-2.82-1.7,2.42,2.42,0,0,1,1.61-3c2.47-.7,5-1.3,7.51-1.78A2.3,2.3,0,0,1,244.79,1083.34Zm-18.86,5.89.06.14a2.46,2.46,0,0,1-1.22,3.16c-1.65.73-3.29,1.52-4.9,2.35-.57.31-1.15.61-1.72.93a2.25,2.25,0,0,1-3.1-1,2.44,2.44,0,0,1,1-3.25c.6-.33,1.21-.65,1.82-1,1.68-.88,3.41-1.71,5.15-2.48A2.27,2.27,0,0,1,225.93,1089.23Z" style="fill:url(#bb245e99-e4d7-4ad6-ab35-9ef386461a59)"/><path d="M349.3,1190.11a2.5,2.5,0,0,1,.22,1.44c-.19,1.29-.4,2.6-.64,3.89a2.3,2.3,0,0,1-2.7,1.9,2.4,2.4,0,0,1-1.81-2.83c.22-1.23.43-2.48.61-3.7a2.26,2.26,0,0,1,4.32-.7Z" style="fill:url(#b8795cca-1762-4438-b2c9-a68123bdb5f3)"/></g><path d="M324.07,1199.6a1.16,1.16,0,0,0-.24-1.28l-9.5-9.45a62.68,62.68,0,0,0,.59-19.36l10.05-8.73a1.18,1.18,0,0,0,.32-1.27l-5.54-15.41a1.09,1.09,0,0,0-1-.74l-13.06.37A58.78,58.78,0,0,0,293,1129.58l1.21-13.67a1.14,1.14,0,0,0-.63-1.13L279.34,1108a1,1,0,0,0-1.23.25l-9,10a54.44,54.44,0,0,0-18.43-.67l-8.34-10.57a1,1,0,0,0-1.21-.34l-14.66,5.78a1.1,1.1,0,0,0-.69,1.08l.37,13.71a58,58,0,0,0-13.44,13.23l-13-1.3a1.07,1.07,0,0,0-1.08.65l-6.46,15a1.17,1.17,0,0,0,.25,1.28l9.5,9.45a63,63,0,0,0-.6,19.36l-10,8.73a1.18,1.18,0,0,0-.32,1.27l5.53,15.41a1.08,1.08,0,0,0,1,.73l13-.36a58.61,58.61,0,0,0,12.63,14.15L222,1238.42a1.15,1.15,0,0,0,.63,1.13l14.28,6.82a1.06,1.06,0,0,0,1.22-.25l9-10a54.46,54.46,0,0,0,18.43.67l8.34,10.57a1.05,1.05,0,0,0,1.21.34l14.66-5.78a1.13,1.13,0,0,0,.7-1.08l-.38-13.71a58.06,58.06,0,0,0,13.45-13.23l13,1.3a1.05,1.05,0,0,0,1.07-.65Z" style="fill:#ff367f"/><path d="M272.24,1169.84a17.06,17.06,0,0,1-5.11,20.93,15.32,15.32,0,0,1-21.93-4.18,17.16,17.16,0,0,1-2.58-12.38,16.55,16.55,0,0,1,6.51-10.65,15.32,15.32,0,0,1,21.93,4.18A16.77,16.77,0,0,1,272.24,1169.84Zm-24.94,12.93a13,13,0,0,0,.92,1.62,11.73,11.73,0,0,0,16.81,3.2,13.1,13.1,0,0,0,3-17.65,11.75,11.75,0,0,0-16.82-3.21,12.64,12.64,0,0,0-5,8.17A13.25,13.25,0,0,0,247.3,1182.77Z" style="fill:#fff;opacity:0.7000000000000001"/><path d="M292.47,1158.93q.88,1.88,1.59,3.84h0c.15.41.29.83.43,1.25a42.79,42.79,0,0,1,1.53,6.32v.09a2,2,0,0,1,0,.24c0,.16.05.33.07.49a1,1,0,0,1-.49,1,.71.71,0,0,1-.28.09.92.92,0,0,1-1-.81,41,41,0,0,0-2-8,37.59,37.59,0,0,0-27-24.32,35.35,35.35,0,0,0-24,3.21A37.55,37.55,0,0,0,224.19,1161a40.26,40.26,0,0,0-.9,29.64c7.19,20,28.52,30.2,47.56,22.7a35.4,35.4,0,0,0,3.43-1.57,36.91,36.91,0,0,0,12.45-10.56,1,1,0,0,1,.31-.26.89.89,0,0,1,1,.11,1,1,0,0,1,.15,1.36,38.84,38.84,0,0,1-16.67,12.73c-20,7.87-42.39-2.83-49.93-23.83a42.31,42.31,0,0,1,1-31.12,39.43,39.43,0,0,1,18-19.59,37.29,37.29,0,0,1,33.28-.6A39.46,39.46,0,0,1,292.47,1158.93Z" style="fill:#fff;opacity:0.7000000000000001"/><g style="opacity:0.30000000000000004"><path d="M398.06,1300.79a1.55,1.55,0,0,1-.31,1.75c-.88.86-1.8,1.7-2.74,2.5a1.36,1.36,0,0,1-2-.21,1.55,1.55,0,0,1,.19-2.1c.89-.76,1.77-1.56,2.61-2.38a1.37,1.37,0,0,1,2,.09A1.41,1.41,0,0,1,398.06,1300.79Z" style="fill:url(#fff78b42-1bc7-4ffc-b190-2f82a7de78c0)"/><path d="M389.4,1307.75a1.53,1.53,0,0,1-.51,1.92,58.24,58.24,0,0,1-5.44,3.2c-.39.21-.78.41-1.18.6a1.44,1.44,0,0,1-1.89-.71,1.53,1.53,0,0,1,.68-2c.38-.18.75-.37,1.13-.57a58.55,58.55,0,0,0,5.18-3,1.38,1.38,0,0,1,2,.47A.83.83,0,0,1,389.4,1307.75Zm-13.32,6.57a1.19,1.19,0,0,1,.08.2,1.51,1.51,0,0,1-.91,1.88,59.71,59.71,0,0,1-7.3,2,1.43,1.43,0,0,1-1.67-1.18,1.49,1.49,0,0,1,1.12-1.75,55.36,55.36,0,0,0,7-1.91A1.4,1.4,0,0,1,376.08,1314.32Zm-14.45,3a1.49,1.49,0,0,1,.14.56,1.46,1.46,0,0,1-1.31,1.59,57.78,57.78,0,0,1-7.56,0,1.46,1.46,0,0,1-1.34-1.57,1.43,1.43,0,0,1,1.49-1.4,56,56,0,0,0,7.21-.06A1.43,1.43,0,0,1,361.63,1317.29Zm-14.71-.85a1.52,1.52,0,0,1,.12.92,1.41,1.41,0,0,1-1.64,1.2,57.65,57.65,0,0,1-7.34-1.88,1.52,1.52,0,0,1-.94-1.87,1.4,1.4,0,0,1,1.77-1,56.6,56.6,0,0,0,7,1.8A1.45,1.45,0,0,1,346.92,1316.44Zm-14.08-4.6a1.54,1.54,0,0,1,0,1.28,1.38,1.38,0,0,1-1.87.74,62.35,62.35,0,0,1-6.69-3.7,1.53,1.53,0,0,1-.47-2.05,1.37,1.37,0,0,1,1.94-.5,57.61,57.61,0,0,0,6.38,3.53A1.46,1.46,0,0,1,332.84,1311.84Zm-12.59-8a1.56,1.56,0,0,1-.16,1.58,1.37,1.37,0,0,1-2,.25,64.05,64.05,0,0,1-5.63-5.3,1.56,1.56,0,0,1,0-2.11,1.37,1.37,0,0,1,2,0,59.41,59.41,0,0,0,5.36,5A1.32,1.32,0,0,1,320.25,1303.8Zm-10.35-11a1.53,1.53,0,0,1-.4,1.84,1.37,1.37,0,0,1-2-.28,64.11,64.11,0,0,1-4.23-6.58,1.54,1.54,0,0,1,.51-2,1.38,1.38,0,0,1,1.94.53,61,61,0,0,0,4,6.28A2,2,0,0,1,309.9,1292.77Zm-10-20.65.09.24a60.4,60.4,0,0,0,2.09,6.21l.36.91a1.52,1.52,0,0,1-.73,2,1.39,1.39,0,0,1-1.87-.78l-.39-1a67,67,0,0,1-2.18-6.5,1.49,1.49,0,0,1,1-1.85A1.39,1.39,0,0,1,299.93,1272.12Z" style="fill:url(#b8f2ea12-5f75-44f0-9841-ded62f0ab930)"/></g><g style="opacity:0.30000000000000004"><path d="M410.58,1225.89a1.53,1.53,0,0,1-.63,2,1.4,1.4,0,0,1-1.91-.65,60.93,60.93,0,0,0-3.61-6.41,1.55,1.55,0,0,1,.38-2.07,1.38,1.38,0,0,1,2,.4,67,67,0,0,1,3.79,6.72Zm2.92,7,.06.14a66.61,66.61,0,0,1,2.16,7.48,1.49,1.49,0,0,1-1.05,1.79,1.42,1.42,0,0,1-1.71-1.11,65.25,65.25,0,0,0-2.06-7.13,1.5,1.5,0,0,1,.84-1.91A1.38,1.38,0,0,1,413.5,1232.88Zm-11.06-19.6a1.54,1.54,0,0,1-.33,1.78,1.37,1.37,0,0,1-2-.14,61.27,61.27,0,0,0-5-5.31,1.54,1.54,0,0,1-.11-2.1,1.38,1.38,0,0,1,2-.11,64,64,0,0,1,5.22,5.56A1.55,1.55,0,0,1,402.44,1213.28Zm14.42,34.41a1.61,1.61,0,0,1,.14.5,65.5,65.5,0,0,1,.38,7.8,1.45,1.45,0,0,1-1.43,1.47,1.48,1.48,0,0,1-1.41-1.51,61.51,61.51,0,0,0-.36-7.43,1.49,1.49,0,0,1,1.25-1.65A1.42,1.42,0,0,1,416.86,1247.69Zm-25.21-44.59a1.53,1.53,0,0,1-.1,1.52,1.38,1.38,0,0,1-2,.36,57.44,57.44,0,0,0-6-3.89,1.53,1.53,0,0,1-.59-2,1.39,1.39,0,0,1,1.92-.61,61.53,61.53,0,0,1,6.34,4.08A1.51,1.51,0,0,1,391.65,1203.1Zm-12.79-7.17a1.56,1.56,0,0,1,.05,1.2,1.39,1.39,0,0,1-1.83.85,58.75,58.75,0,0,0-6.75-2.26,1.5,1.5,0,0,1-1-1.82,1.4,1.4,0,0,1,1.72-1.07,61.91,61.91,0,0,1,7.08,2.37A1.46,1.46,0,0,1,378.86,1195.93Zm-14.05-3.75a1.53,1.53,0,0,1,.13.85,1.42,1.42,0,0,1-1.58,1.29,55.88,55.88,0,0,0-7.07-.5,1.49,1.49,0,0,1,0-3,57.57,57.57,0,0,1,7.41.53A1.43,1.43,0,0,1,364.81,1192.18Z" style="fill:url(#eb64446a-8c83-4784-8bab-4b992b265270)"/><path d="M416.71,1263a1.67,1.67,0,0,1,.14.86c-.17,1.27-.36,2.53-.59,3.76a1.42,1.42,0,0,1-1.66,1.18,1.51,1.51,0,0,1-1.13-1.75c.22-1.18.41-2.38.56-3.59a1.41,1.41,0,0,1,2.68-.46Z" style="fill:url(#a3db0fee-dac4-47cb-98c2-1b06fa0f527c)"/></g><path d="M399.78,1270.41a.78.78,0,0,0-.17-.86l-6.35-6.32a41.87,41.87,0,0,0,.39-13l6.73-5.85a.78.78,0,0,0,.21-.85l-3.7-10.31a.73.73,0,0,0-.7-.49l-8.73.24a39.43,39.43,0,0,0-8.45-9.47l.81-9.14a.76.76,0,0,0-.42-.76l-9.56-4.56a.69.69,0,0,0-.82.17l-6,6.66a36.38,36.38,0,0,0-12.33-.45l-5.58-7.07a.71.71,0,0,0-.81-.23l-9.81,3.87a.74.74,0,0,0-.47.72l.25,9.18a38.55,38.55,0,0,0-9,8.85l-8.71-.87a.71.71,0,0,0-.72.44l-4.32,10a.78.78,0,0,0,.16.86l6.36,6.32a42.24,42.24,0,0,0-.4,13l-6.72,5.84a.79.79,0,0,0-.21.85l3.7,10.31a.71.71,0,0,0,.69.49l8.74-.24a39.43,39.43,0,0,0,8.45,9.47l-.81,9.14a.76.76,0,0,0,.42.76l9.55,4.56a.69.69,0,0,0,.82-.16l6-6.67a36.12,36.12,0,0,0,12.33.45l5.58,7.08a.72.72,0,0,0,.81.22l9.81-3.86a.76.76,0,0,0,.46-.73l-.25-9.17a39.18,39.18,0,0,0,9-8.85l8.71.87a.72.72,0,0,0,.72-.44Z" style="fill:#ff367f"/><path d="M365.27,1250.42a11.7,11.7,0,0,1,1,7,11.22,11.22,0,0,1-4.44,7.25,10.43,10.43,0,0,1-14.93-2.84,11.65,11.65,0,0,1,2.67-15.69,10.25,10.25,0,0,1,8-1.82,10.61,10.61,0,0,1,6.91,4.67A10.2,10.2,0,0,1,365.27,1250.42Zm-16.69,8.65a9.07,9.07,0,0,0,.59,1,7.67,7.67,0,0,0,11,2.09,8.24,8.24,0,0,0,3.26-5.33,8.55,8.55,0,0,0-1.29-6.2h0a7.82,7.82,0,0,0-5.08-3.44,7.53,7.53,0,0,0-5.91,1.34A8.56,8.56,0,0,0,348.58,1259.07Z" style="fill:#fff;opacity:0.7000000000000001"/><path d="M379.36,1242.85c.4.85.76,1.72,1.09,2.62a30.08,30.08,0,0,1,1.4,5.53l0,.25a1.5,1.5,0,0,1-.77,1.56,1.88,1.88,0,0,1-.42.14,1.44,1.44,0,0,1-1.61-1.26,26.26,26.26,0,0,0-1.29-5.17h0a2.31,2.31,0,0,0-.1-.28,24.85,24.85,0,0,0-6.78-10,24.15,24.15,0,0,0-5.43-3.65l-.05,0-.15-.07a22.67,22.67,0,0,0-18.27-.66c-.77.31-1.53.65-2.26,1a24.34,24.34,0,0,0-11.08,12.08,26.13,26.13,0,0,0-.58,19.19,24.64,24.64,0,0,0,12.51,14,22.73,22.73,0,0,0,18.28.65,22.2,22.2,0,0,0,2.22-1,24,24,0,0,0,8.06-6.84,1.41,1.41,0,0,1,.48-.4,1.34,1.34,0,0,1,1.51.17,1.54,1.54,0,0,1,.23,2.09,26.79,26.79,0,0,1-9,7.65,25.75,25.75,0,0,1-22.94.4,27.49,27.49,0,0,1-14-15.7,29.2,29.2,0,0,1,.65-21.48,27.22,27.22,0,0,1,12.4-13.51A26.2,26.2,0,0,1,346,1229C358.94,1223.94,373.33,1230.11,379.36,1242.85Z" style="fill:#fff;opacity:0.7000000000000001"/></g></svg>