<svg id="b170643a-ac17-46b6-89c1-8a871531db84" data-name="Image 03" xmlns="http://www.w3.org/2000/svg" xmlns:xlink="http://www.w3.org/1999/xlink" viewBox="0 0 920 1480"><defs><linearGradient id="bb91ac99-5669-4c52-b739-539889886734" y1="740" x2="920" y2="740" gradientTransform="translate(1200 280) rotate(90)" gradientUnits="userSpaceOnUse"><stop offset="0" stop-color="#ebebeb"/><stop offset="1" stop-color="#fff"/></linearGradient><linearGradient id="a2f4e82e-003a-40ed-b32a-5e27bff20a41" x1="1082.71" y1="42.91" x2="-366.7" y2="1382.51" gradientUnits="userSpaceOnUse"><stop offset="0" stop-color="#f9f1f5"/><stop offset="1" stop-color="#cbd8ed"/></linearGradient></defs><rect x="-280" y="280" width="1480" height="920" transform="translate(-280 1200) rotate(-90)" style="fill:url(#bb91ac99-5669-4c52-b739-539889886734)"/><path d="M920,0H86.49c-7.74,57.37,38.62,105.1,90.4,110.78,34.66,3.8,69.22-5.76,103.33-13.73S350,82.7,383.67,92.69s65.09,40.4,69,80c2.12,21.72-4,43.25-6.31,65-9,84.65,50.43,171,124.43,180.81,34.94,4.65,70-5.64,105.14-6.95S750.41,421,769.13,455c22.7,41.33,5,95.65-17,137.5s-49.06,86-43.76,134.43c10.23,93.68,129.13,126.08,149.1,217.68,6,27.56,1.84,56.49-1.71,84.6s-6.33,57.59,2.18,84.26,31.83,49.33,56.35,44.94A35.47,35.47,0,0,0,920,1157Z" style="fill:url(#a2f4e82e-003a-40ed-b32a-5e27bff20a41)"/><g id="ebae7581-30fe-494f-b157-a8391bb365fa" data-name="Graphic Elements"><path d="M759.83,1145.78H146c-19.41,0-35.3,9.63-35.3,21.39h0c0,8.15,7.62,15.26,18.75,18.87h-54c-19.41,0-35.3,9.63-35.3,21.39h0c0,11.76,15.89,21.39,35.3,21.39H94.27c-5.26,3.74-8.45,8.57-8.45,13.84v8.55c0,11.77,15.88,21.39,35.3,21.39H725.78c19.41,0,35.3-9.62,35.3-21.39v-8.55c0-11.77-15.89-21.39-35.3-21.39l-41.12.48a19.56,19.56,0,0,0,11.63-4.51c6-5.28,6.25-13.31,3.32-20-1.89-4.31-4.93-7.72-12.46-9l72.68.29c19.41,0,35.3-9.62,35.3-21.39h0C795.13,1155.41,779.24,1145.78,759.83,1145.78Z" style="fill:#fff"/><polygon points="290.98 855.72 303.14 858.92 354.32 903.71 346.65 928.02 321.69 928.02 290.98 855.72" style="fill:#8ca6d6"/><polygon points="583.99 874.92 542.4 906.27 507.21 912.66 507.21 925.46 558.83 921.35 606.38 896.67 597.42 870.06 583.99 874.92" style="fill:#aac1e5"/><polygon points="639.81 1219.6 640.43 1225.74 629.29 1233.4 622.79 1228.02 628.05 1221.12 639.19 1213.46 639.81 1219.6" style="fill:#211e1c"/><polygon points="639.53 1031.79 641.42 1050.44 624.71 1114.54 640.23 1217.54 628.81 1221.48 598.69 1120.92 593.91 1091.67 594.09 1029.74 639.53 1031.79" style="fill:#cab5a0"/><polygon points="551.69 1052.58 575.72 1225.17 586.63 1225.17 588.6 1114.54 608.48 1036.89 551.69 1052.58" style="fill:#cab5a0"/><polygon points="586.57 1223.81 586.57 1230.01 574.76 1236.21 568.86 1230.01 574.76 1223.81 586.57 1223.81" style="fill:#211e1c"/><path d="M638.93,1011c-9.33-61.28-6-105.91-6.48-118.17a25.39,25.39,0,0,0-9.09-18.62c-3.77-.84-7.06-3.27-10.87-4.23-25.78-6.49-39.85,13.2-49.5,34.44a607.91,607.91,0,0,0-30,80.78c-7.09,24.21-14.2,48.63-17.17,73.76-1.23,10.36-2.25,20.19,9.1,24.76,18.08,7.29,38.4,7.13,57.5,9.47,21.94,2.68,43.92,4.64,66,5.56C660,1099.27,648.26,1072.33,638.93,1011Z" style="fill:#8ca6d6"/><path d="M590.3,776.66c-78.22,1.55-109.48-40.78-113.61-46.93,0,0,0-.54-.24-.37-.16-.24-.37.25-.37.25-6.14,4.14-51.06,31.54-122.92.6,0,0-38,132.75-5,196.39,35.2,68,71.14,93.49,71.37,93.37.17.2,43.36-9.46,101.33-59.54C575.08,913.58,590.3,776.66,590.3,776.66Z" style="fill:#49529a"/><path d="M576.6,788.4c-70.92,1.12-99.41-36.69-103.17-42.18,0,0,0-.48-.22-.33-.15-.22-.33.22-.33.22-5.56,3.67-46.21,27.93-111.47.14,0,0-34,118.14-3.91,175,32.14,60.67,64.15,86.72,64.36,86.62.15.17,39.95-11.5,92.36-55.93C563.25,910.33,576.6,788.4,576.6,788.4Z" style="fill:#515da2"/><path d="M470.53,758s.19-.46.34-.23c.23-.16.24.34.24.34,3.86,5.65,32.63,43.82,103.78,44.2,2.07-12.31,2.92-20.11,2.92-20.11-70.93,1.12-99.41-36.68-103.17-42.18,0,0,0-.48-.23-.33-.14-.22-.33.22-.33.22-5.55,3.67-46.2,27.94-111.46.14,0,0-2.17,7.53-4.92,19.71C423.76,786.23,464.82,761.72,470.53,758Z" style="fill:#5863a7"/><g style="opacity:0.34"><path d="M549.88,817.84c-53.63,1.06-80.95-30.39-83.78-34.61,0,0,0-.36-.17-.25-.11-.17-.25.17-.25.17-4.21,2.84-41,21.66-90.3.44,0,0-20,91,2.59,134.62,24.13,46.6,48.78,64.09,48.93,64,.12.13,29.73-6.49,69.47-40.82C533.56,909.28,549.88,817.84,549.88,817.84Z" style="fill:#fff"/></g><polygon points="528.05 1048.17 561.59 1032.95 583.35 1009.92 590.38 1017.6 572.47 1045.11 545.08 1066.27 528.05 1048.17" style="fill:#d27186"/><polygon points="501.03 1066.22 483.13 1035.58 481.41 998.51 491.64 998.03 497.74 1032.98 514.4 1046.94 501.03 1066.22" style="fill:#d27186"/><polygon points="497.11 1156.78 497.11 1228.08 507.87 1228.08 514.59 1185.03 520.65 1152.07 497.11 1156.78" style="fill:#8ca6d6"/><polygon points="520.65 1149.38 524.68 1180.33 530.07 1230.1 540.83 1229.43 540.83 1191.09 546.21 1152.07 520.65 1149.38" style="fill:#8ca6d6"/><path d="M515.6,1045.46s-11.43-2-16.14,15.47-17.49,68.61-18.16,95.52,16.81,9.41,37.67,12.78,38,3.7,38-8.41S564.37,1045.79,515.6,1045.46Z" style="fill:#d27186"/><path d="M509,1010.7c9.52-16.8,30.86-6.05,32.32,10.68.83,9.52-5.53,25.38-16.74,24.58-.7,1.53-1.92,4.44-3.5,5.09s-5.47-1.8-7-2.73a2.64,2.64,0,0,1-1-1c-.27-.55,0-1.67.45-2.89a15.35,15.35,0,0,1-3.41-2c-4.62-3.49-6.75-9.61-6.51-15.4S506.18,1015.74,509,1010.7Z" style="fill:#f0d3b9"/><path d="M522.33,1006.33s15.24,3.81,15.24,10.16c0,9.55.64,16,0,21.63l10.8-6.39,6.35-17.78s-1.27-14.6-8.89-17.14-23.5-5.08-23.5-5.08l-12.06,3.81-8.89-.64,3.07,26.67S508.36,1002.52,522.33,1006.33Z" style="fill:#292949"/><polygon points="497.11 1228.08 491.05 1234.14 493.74 1238.17 505.85 1234.14 505.85 1228.08 497.11 1228.08" style="fill:#2b2d2d"/><polygon points="531.86 1229.99 534.1 1238.85 541.5 1241.54 545.54 1239.52 539.27 1229.53 531.86 1229.99" style="fill:#2b2d2d"/><polygon points="583.35 1009.92 584.63 1002.24 587.19 1002.24 592.3 997.12 594.22 1000.96 592.94 1010.56 588.4 1014.92 583.35 1009.92" style="fill:#f0d3b9"/><polygon points="489.5 998.13 495.05 989.45 492.49 986.25 489.29 989.45 486.09 980.49 479.06 983.69 482.67 998.45 489.5 998.13" style="fill:#f0d3b9"/><polygon points="632.61 907.44 573.11 951.7 506.06 947.98 506.44 934.44 563.79 928.03 609.08 889.19 633.33 881.73 632.61 907.44" style="fill:#aac1e5"/><polygon points="506.53 934.77 491.43 934.36 484.13 941.8 486.18 945.86 494.72 947.44 506.16 944.21 506.53 934.77" style="fill:#f0d3b9"/><path d="M597.32,811s-8.26,3.91-10.17,25.4S579.93,871,579.93,871s6.31,5,12.28,3,8.08-2.11,8.23-11,6.22-49.93,6.22-49.93Z" style="fill:#292949"/><path d="M612.62,822.18A21.57,21.57,0,0,0,593.37,836a19,19,0,0,1,11.47-28.84,22,22,0,0,1,7.16,15Z" style="fill:#292949"/><path d="M594,828.75c9.39-20.45,35.23-10.09,38.59,9.2,1.92,11-3.9,30-17,30.2-.66,1.85-1.79,5.35-3.56,6.26s-6.53-1.55-8.36-2.48a3.1,3.1,0,0,1-1.32-1c-.37-.61-.12-1.95.23-3.4a18.12,18.12,0,0,1-4.15-2c-5.72-3.59-8.79-10.48-9.09-17.24S591.21,834.9,594,828.75Z" style="fill:#f0d3b9"/><path d="M605.36,807.25s-5.47,11,8.59,17.93,20.84,21,15.22,32.6-18.86,18-13.84,22.65,27.15,6.75,27.15,6.75,23.69-40.11,10.89-63.19S615.52,794,605.36,807.25Z" style="fill:#292949"/><path d="M241.93,781.41s-5.57.54-8.83,4.62-13.57,22.56-13.46,36.91-2.1,32.17,26.28,44.6c14.13,4.61,14.45-8,25.75-8.82s21.07,3.18,19.53-14.39-12.64-21.53-18.79-41.15S256.57,775.64,241.93,781.41Z" style="fill:#d27186"/><polygon points="237.85 782.54 212.71 791.04 193.73 793.8 194.01 802.03 212.53 804.63 232.44 800.71 237.85 782.54" style="fill:#d27186"/><polygon points="261.32 780.32 279.66 786.96 295.04 781.52 297.43 786.67 282.92 797.19 268.41 798.18 261.32 780.32" style="fill:#d27186"/><path d="M256.66,745s11.48,7.56,10.44,19c0,0,7.52-6,4.3-14.44s-5.38-11.72-13.34-9.94S256.66,745,256.66,745Z" style="fill:#292949"/><path d="M267,757.61c-1.4-17-22.52-16.34-29.92-3.46-4.21,7.33-5,22.44,4.29,26,0,1.49-.11,4.28.91,5.39s5.07.59,6.61.4a2.46,2.46,0,0,0,1.22-.4,4.36,4.36,0,0,0,.71-2.49,13.46,13.46,0,0,0,3.47-.31c5-1.08,9-5.2,11-9.94S267.4,762.72,267,757.61Z" style="fill:#f3dcc6"/><path d="M259.34,749.46c-5.91,6.21-15.3,6.61-20.94,12.64,0,0-3.68,3.94-2.74,13.34a15.46,15.46,0,0,1-14.15-9.39c-4.31-9.81,5.62-29.14,5.62-29.14A35.29,35.29,0,0,1,254.05,732c5.18,1.21,9.85,5.12,8.72,11A12.67,12.67,0,0,1,259.34,749.46Z" style="fill:#292949"/><path d="M237.64,782.75s-1.15,8.6,3.41,9.58,15.07-.94,16.88-2.52c2.51-2.19,0-8.52,0-8.52l3.39-1s15.65,32,3,36.76-28.57,6.16-31.18-3.94,1.12-29,1.12-29Z" style="fill:#d27186"/><polygon points="193.76 794.68 184.47 792.5 184.05 794.45 190.38 799.89 188.8 800.92 189.97 801.85 193.97 800.82 193.76 794.68" style="fill:#f3dcc6"/><polygon points="295.27 782.18 297.66 779.23 302.36 779.55 303.62 783.22 301.48 786.85 297.42 786.41 295.27 782.18" style="fill:#f3dcc6"/><polygon points="332.52 995.11 334.84 1094.11 317.7 1221.99 303.35 1222.16 292.89 1104.47 271.86 986.91 332.52 995.11" style="fill:#353b83"/><polygon points="303.41 1220.45 303.5 1228.21 319.11 1235.78 326.77 1227.93 318.93 1220.27 303.41 1220.45" style="fill:#292949"/><polygon points="254.59 1224.19 266.93 1234.68 263.84 1240.84 241.02 1235.91 241.02 1224.19 254.59 1224.19" style="fill:#292949"/><polygon points="282.77 1034.05 272.51 1130.01 258.99 1225.66 239.69 1224.74 240.39 1125.52 228.78 1033.48 256.06 1020.78 282.77 1034.05" style="fill:#353b83"/><path d="M294.15,857.64s23.82,15.76,39,66.86c15.42,52,13.14,120.89,13.14,120.89s-135.54,22.94-132.73.36c0,0-4.48-182.35,55.66-186.83C271.93,858.72,292.67,856.51,294.15,857.64Z" style="fill:#8ca6d6"/><path d="M288.39,862.76c10.22,24.93,17.89,48.44,28.39,73.26,6.23,14.71,6.29,30.07,7.18,45.73s1.77,31.14,2.65,46.71q.57,9.87,1.12,19.74l-56.65,6c3.26-18.87,7-37.65,9.91-56.57,2.68-17.45,6.81-37,3.6-54.64-1.56-8.56-3.25-17.12-4.86-25.68-2.94-15.71-4.26-31.78-7.34-47.46-.21-1.1,2.21-7.22,2.56-8.32Z" style="fill:#fff"/><path d="M272.49,861.71l0,2.94-15.44,36.27-6.83-2.26,4-35.3,10.62-6A5.1,5.1,0,0,1,272.49,861.71Z" style="fill:#f3dcc6"/><polygon points="257.98 900.5 261.67 907.14 258.79 908.81 249.76 902.8 250.36 897.99 257.98 900.5" style="fill:#292949"/><path d="M301.91,850.24l1.77,2.35,9.1,38.36-6.84,2.23L288.21,862.4l5-11.16A5.1,5.1,0,0,1,301.91,850.24Z" style="fill:#f3dcc6"/><polygon points="313.25 890.72 320.16 893.87 318.83 896.93 308 897.44 305.63 893.21 313.25 890.72" style="fill:#292949"/><path d="M288.15,863.71l-13.24-2.13a66.27,66.27,0,0,1,1.37-10.6c-3.63-1.53-7.79-3.74-8.2-7.65a11.14,11.14,0,0,1,.44-3.67q1.77-7.49,3.53-14.95a13.54,13.54,0,0,1,1.88-4.93c1.82-2.52,5.11-3.47,8.2-3.81,7.88-.88,16.28,1.32,22,6.8a12.07,12.07,0,0,1,3.47,5.2c.91,3.13-.11,6.45-1.13,9.54l-2.81,8.56c-1.08,3.28-2.58,7-5.86,8-1.75.56-3.75.24-5.36,1.13C289.62,856.82,289.74,860.89,288.15,863.71Z" style="fill:#f0d3b9"/><path d="M334.68,816.07a43.19,43.19,0,0,0-.46-10.16c-.85-5.49-7.08-8.31-12.58-9-11.89-1.57-23.07-7.7-35-4.24-6.81,2-15.79,2-22,5a17.77,17.77,0,0,0-6.46,5.64,26.84,26.84,0,0,0-1.79,28.35,38.15,38.15,0,0,0,3.85,5.52c2.94,3.6,6.44,8,10.69,9.56.34-3.86-2.45-16.28.72-19.27,5-4.74,15.58-2.34,21.35-.74,6.3,1.74,11.71,6.6,18,8,4.51,1,10.46-.91,14.47-3C331.73,828.28,334.13,822.3,334.68,816.07Z" style="fill:#292949"/><polygon points="254.48 863.4 184.09 906.91 198.81 930.58 242.32 910.11 254.48 863.4" style="fill:#8ca6d6"/><polygon points="231.88 845.15 183.99 906.92 198.81 930.74 215.45 922.9 242.56 852.89 231.88 845.15" style="fill:#aac1e5"/><polygon points="234 846.68 240.4 838.45 255.76 835.89 258.31 842.28 250.64 848.68 240.92 851.7 234 846.68" style="fill:#f0d3b9"/><path d="M225,1139.67s4.54,3.83,7.7-3.61,6.45-6.37,8.27-3.74-2.08,2.44-4.18,8.28c-3.33,9.3-7.77,16.43-9.38,17.41s-6.47,3.34-6.57,7-4.73-11.1-4.29-11.81Z" style="fill:#d8d8d8"/><path d="M227.13,1150.5s3,5.1,8.46-.89,8.18-3.9,9-.82-2.78,1.62-6.67,6.45c-6.2,7.7-12.73,13-14.57,13.37s-7.21,1-8.5,4.48-.84-12-.18-12.57Z" style="fill:#ebebeb"/><path d="M189.92,1183.81s6.12,17,3.13,21.62-11.27,20-10,22.59.6,3.78-1.62,2.94-5.29-2.9-4-8.71,3.83-12.56,1.91-17.44,2.36-19.24,2.36-19.24Z" style="fill:#d8d8d8"/><path d="M196.11,1123.53s-6.32-1-5.87,6.24-6.4,19.76-17.65,29.07c-11,9.1-21.3,23.2-8.54,39.15s36.95-.62,42.16-9.75,19.7-14.92,22.68-28.41-4.55-19.67-4.91-23.85S196.11,1123.53,196.11,1123.53Z" style="fill:#ebebeb"/><path d="M190.14,1197s3.26,8.69-3.29,14.87-12.57,9-14.92,13.49,2.8,6-1.13,6-6.56-.61-6.21-5.49,8.32-9.1,7.24-15.93-6.34-8.22-7-13.25,14.93-13.49,14.93-13.49l11.28,14.12Z" style="fill:#ebebeb"/><path d="M160.66,1190.22a8.55,8.55,0,0,1-10.38-1.81c-4.34-4.67-4.58-11.32.32-15.42s8.6.35,8.16,1.86-5.72,7.33-.27,11.88C161.12,1188.41,160.66,1190.22,160.66,1190.22Z" style="fill:#ebebeb"/><path d="M225.43,1133.3l-1.72,2.2s-9.75,6-25.1-4.59c-6.49-6-5.28-7.61-5.28-7.61l2.84-.06S205,1137.69,225.43,1133.3Z" style="fill:#d27186"/><path d="M206.24,1098.72s.66-1.87,3.65-2.68,8.76,3,10,3.12,4,.13,1.6,1.8S208.29,1101.44,206.24,1098.72Z" style="fill:#292949"/><path d="M197.49,1107.82s3.17-7.71,10.19-9.49a17.28,17.28,0,0,1,12.08,1.67c1.92,1,3.58,2.29,5.42,3.36,1.22.71,2.56.84,3.78,1.64a12.07,12.07,0,0,1,5,9.52c-.09,3.45,5.92,12-4.35,17s-26.23,2-30.67-2.9S190.34,1118.76,197.49,1107.82Z" style="fill:#ebebeb"/><path d="M199.45,1108.19s-3.7-1.16-6.06.83-4.62,2-3.81,5,2.14,10.62,6.29,12,1.8-4.54,3.1-7.11S201.64,1108.62,199.45,1108.19Z" style="fill:#292949"/></g></svg>