<svg xmlns="http://www.w3.org/2000/svg" xmlns:xlink="http://www.w3.org/1999/xlink" viewBox="0 0 920 1480"><defs><linearGradient id="f41ace06-b11a-4f6c-88a4-b155449c1944" y1="740" x2="920" y2="740" gradientTransform="translate(1200 280) rotate(90)" gradientUnits="userSpaceOnUse"><stop offset="0" stop-color="#ebebeb"/><stop offset="1" stop-color="#fff"/></linearGradient><linearGradient id="b97cdbd3-8540-488a-a3fe-74a8c69331fe" x1="1082.71" y1="42.91" x2="-366.7" y2="1382.51" gradientUnits="userSpaceOnUse"><stop offset="0" stop-color="#f9f1f5"/><stop offset="1" stop-color="#cbd8ed"/></linearGradient></defs><g style="isolation:isolate"><g id="bebb2cb7-b985-4f25-95d2-4a10fe631b84" data-name="Image 01"><rect x="-280" y="280" width="1480" height="920" transform="translate(-280 1200) rotate(-90)" style="fill:url(#f41ace06-b11a-4f6c-88a4-b155449c1944)"/><path d="M920,0H86.49c-7.74,57.37,38.62,105.1,90.4,110.78,34.66,3.8,69.22-5.76,103.33-13.73S350,82.7,383.67,92.69s65.09,40.4,69,80c2.12,21.72-4,43.25-6.31,65-9,84.65,50.43,171,124.43,180.81,34.94,4.65,70-5.64,105.14-6.95S750.41,421,769.13,455c22.7,41.33,5,95.65-17,137.5s-49.06,86-43.76,134.43c10.23,93.68,129.13,126.08,149.1,217.68,6,27.56,1.84,56.49-1.71,84.6s-6.33,57.59,2.18,84.26,31.83,49.33,56.35,44.94A35.47,35.47,0,0,0,920,1157Z" style="fill:url(#b97cdbd3-8540-488a-a3fe-74a8c69331fe)"/><g id="b872a21c-210b-44ab-9a86-b2607f1f4f98" data-name="Graphic Elements"><path d="M74.1,1126.45H666c19.44,0,35.35,11.13,35.35,24.72h0c0,9.42-7.63,17.64-18.78,21.82h54.13c19.44,0,35.35,11.12,35.35,24.72h0c0,13.6-15.91,24.72-35.35,24.72H717.83c5.27,4.32,8.46,9.91,8.46,16v9.89c0,13.59-15.91,24.72-35.35,24.72H108.2c-19.44,0-35.35-11.13-35.35-24.72v-9.89c0-13.6,15.91-24.73,35.35-24.73l41.17.55a18.13,18.13,0,0,1-11.64-5.2c-6-6.1-6.26-15.39-3.33-23.07,1.9-5,4.94-8.93,12.48-10.42l-72.78.33c-19.44,0-35.35-11.12-35.35-24.72h0C38.75,1137.58,54.66,1126.45,74.1,1126.45Z" style="fill:#fff"/><polygon points="702.36 700.46 710.99 691.16 710.39 679.98 712.7 678.65 714.45 681.42 716.61 672 722.84 667.23 732.82 670.28 739.01 679.11 734.93 688.7 725.03 696.14 713.77 709.39 702.36 700.46" style="fill:#eacdb0"/><path d="M707.52,691.52l-36,45.33c-3.23,4.06-5.71,8.7-9,12.75-4.78,5.92-6.21,7.49-13,5.41-19.77-6-37.32-18.54-56.85-24.35-3.84,6.4-8.49,12.12-11.64,19-5.14,11.25,3,13.92,11.3,18.6q14.72,8.34,30,15.71c8.42,4,43.75,24.16,52.3,13,6.15-8,53.29-95.36,55.11-94.46Z" style="fill:#8ca6d6"/><polygon points="456.87 741.3 448.51 733.42 448.38 723.29 446.22 722.23 444.8 724.83 442.29 716.46 436.38 712.53 427.55 715.88 422.48 724.22 426.74 732.64 436.14 738.76 447.11 750.05 456.87 741.3" style="fill:#eacdb0"/><polygon points="456.06 731.8 441.03 749.6 481.35 810.84 496.35 815.67 560.26 764.71 543.17 729.81 495.5 770.32 456.06 731.8" style="fill:#aac1e5"/><polygon points="658.87 1212.58 661.1 1222.82 643.41 1237.4 631.23 1229.33 638.95 1216.92 656.64 1202.35 658.87 1212.58" style="fill:#292949"/><polygon points="597.02 897.79 616.75 943.3 618.62 1071.34 659.19 1209.06 640.32 1217.42 557.52 1057.51 548.1 1006.86 544.35 900.19 597.02 897.79" style="fill:#292949"/><polygon points="501.47 907.99 499.92 1042.17 525.21 1215.18 544.65 1215.18 556.93 1055.54 583.53 895.91 501.47 907.99" style="fill:#292949"/><polygon points="544.54 1212.87 544.54 1223.38 523.51 1233.89 513 1223.38 523.51 1212.87 544.54 1212.87" style="fill:#292949"/><path d="M539.76,726.3l51.65-1.92s30.89,27.11,46.86,97.56c16.26,71.73-3,175-3,175S496.71,978.46,474,975.61L508.65,834Z" style="fill:#8ca6d6"/><path d="M558.27,731.57l18.09-1.77a90.74,90.74,0,0,0-1-14.45c5-1.76,10.84-4.4,11.72-9.65a14.86,14.86,0,0,0-.29-5l-3.51-20.51a18.53,18.53,0,0,0-2.12-6.83c-2.25-3.55-6.63-5.11-10.78-5.84-10.58-1.85-22.12.43-30.34,7.35a16.49,16.49,0,0,0-5.13,6.75c-1.49,4.15-.39,8.73.73,13q1.55,5.91,3.08,11.82c1.19,4.52,2.9,9.67,7.26,11.38,2.31.9,5,.64,7.14,2C556.85,722.13,556.35,727.63,558.27,731.57Z" style="fill:#eacdb0"/><path d="M499.34,663.23a58.9,58.9,0,0,1,1.48-13.7c1.61-7.35,10.28-10.65,17.78-11.17,16.2-1.12,31.83-8.47,47.66-2.8,9,3.24,21.19,4,29.37,8.59a24.09,24.09,0,0,1,8.26,8.17,36.39,36.39,0,0,1,.05,38.5,51.89,51.89,0,0,1-5.67,7.13c-4.28,4.63-9.39,10.34-15.27,12-.13-5.26,4.68-21.81.65-26.12-6.39-6.85-20.87-4.48-28.82-2.81-8.66,1.82-16.39,7.95-25,9.25-6.18.93-14.07-2.11-19.32-5.31C502.3,680,499.56,671.7,499.34,663.23Z" style="fill:#292949"/><path d="M397.25,451.49v-7.23l3.33-6.81a2.29,2.29,0,0,1,3.33.07l2.79,6.74v7.23c2.62,0,6.89,2.05,6.89,4.59a4.68,4.68,0,0,1-4.75,4.59H406.7V705.56c0,13.81,7.3,25.31,17.79,25.06,8.13-.19,15.22-7.1,16.42-18.39a5,5,0,0,1,5-4.42h.18a4.91,4.91,0,0,1,5,5.42c-2.08,16-14.81,27.53-26.9,27.53-9.45,0-17.19-4.38-21.7-12.27-5.59-9.77-5.23-20.51-5.23-31.23V460.67h-1.47a4.67,4.67,0,0,1-4.75-4.59C391,453.54,394.63,451.49,397.25,451.49Z" style="fill:#292949"/><polygon points="397.25 588.76 406.79 578.84 406.79 562.45 397.25 562.45 397.25 588.76" style="fill:#040504;opacity:0.26"/><path d="M341,587.29l-1,.47c-.45-.16-.91-.32-1.38-.47H341Z" style="fill:none"/><path d="M463.37,586.06l-1.46-9a212.12,212.12,0,0,0-35.15-87l-22.82-32.85A148.1,148.1,0,0,1,544.54,586.3a143.65,143.65,0,0,0-40.85-5.66A147.15,147.15,0,0,0,463.37,586.06Z" style="fill:#2f3a84"/><path d="M344,567.93l-3.91,19.36h-1.47a141.61,141.61,0,0,0-44-6.65,144.5,144.5,0,0,0-44.18,6.61,148.16,148.16,0,0,1,147.1-130.17c1.59,0,3.17,0,4.75.09l-18.23,26.65C361.73,511.31,351.46,539.16,344,567.93Z" style="fill:#2f3a84"/><path d="M461.91,577l1.46,9-.39.12c-15.39-6.84-36.47-10.76-59.76-10.76-24.52,0-46.65,4.34-62.25,11.87h-.87L344,567.93c7.45-28.77,17.72-56.62,40.07-84.11l18.23-26.65c.54,0,1.09,0,1.63.06l22.82,32.85A212.12,212.12,0,0,1,461.91,577Z" style="fill:#5861a5"/><path d="M463.37,586.06l.05.31-.44-.19Z" style="fill:#fff"/><path d="M465.38,587.29h-1.81l-.15-.92C464.09,586.67,464.74,587,465.38,587.29Z" style="fill:#fff"/><path d="M463.42,586.37l.15.92h-4.2c1.19-.39,2.39-.76,3.61-1.11Z" style="fill:#fff"/><path d="M554,732.68,499.71,949.86l-4.45,28.48,67.64,8.9s-2.67-104-1.78-117.86,10.93-43.86,12.47-76.17c.89-18.69,6.82-52.27,2.67-63.2Z" style="fill:#fff"/><polygon points="352.01 781.07 359.04 774.45 359.15 765.94 360.97 765.04 362.16 767.24 364.28 760.2 369.25 756.9 376.66 759.72 380.92 766.74 377.33 773.8 369.43 778.95 360.21 788.43 352.01 781.07" style="fill:#eacdb0"/><polygon points="354.23 770.68 314.9 817.3 263.54 767.55 255.55 827.03 318.07 858.02 367.27 784.26 354.23 770.68" style="fill:#aeccdc"/><polygon points="182.97 1213.71 182.12 1222.12 197.39 1232.6 206.31 1225.23 199.09 1215.79 183.82 1205.31 182.97 1213.71" style="fill:#292949"/><polygon points="183.35 956.65 180.76 982.18 203.67 1069.91 182.4 1210.89 198.05 1216.29 239.34 1078.65 245.89 1038.61 245.65 953.85 183.35 956.65" style="fill:#eacdb0"/><polygon points="303.77 985.11 270.84 1221.34 255.87 1221.34 253.17 1069.91 225.93 963.63 303.77 985.11" style="fill:#eacdb0"/><polygon points="255.95 1219.47 255.95 1227.96 272.14 1236.44 280.23 1227.96 272.14 1219.47 255.95 1219.47" style="fill:#292949"/><path d="M267,742.61a13.53,13.53,0,0,0-4.94-4.82c-14.87-8.39-39.52-1-55.66-1-4.77,50.21-18,98.07-26.47,147.37q-13.57,78.54-30.54,156.44c-.64,2.94,44.91,1.46,49.21,1.53,43.82.74,90.86,2.47,133.15-10.78-27-72.45-26.52-152.29-47.77-226.62-3.73-13.05-8.16-25.91-11.52-39.06C270.5,758,270.8,748.84,267,742.61Z" style="fill:#49529a"/><path d="M244.37,670.34a29.53,29.53,0,0,1,21,24.73A26,26,0,0,0,259.69,653a30.09,30.09,0,0,0-14.49,17.55Z" style="fill:#292949"/><path d="M266.94,685.2c-5.74-30.26-43.54-25-54.39-.53-6.17,13.94.29,33.67,12.63,43.36.27,2.68.61,10.08,2.66,11.87,2.22,1.94,9.21.09,11.95-.55a4.16,4.16,0,0,0,2.1-.94c.69-.69.8-2.54.82-4.59a25.17,25.17,0,0,0,6.16-1.22c8.8-2.88,15.16-11,17.8-19.9S268.66,694.3,266.94,685.2Z" style="fill:#eacdb0"/><path d="M408.77,746.15c-23.43-1.91-52.91,10.59-59.94,30.6-7-20-43-32.32-66.41-30.41-61.83,5-82.76,74-56.54,120.35,14.11,24.95,34.38,46.77,56.5,66.36,18.52,16.41,66.3,51.21,66.45,51.09.14.12,47.92-34.68,66.44-51.09,22.12-19.59,42.4-41.41,56.5-66.36C498,820.32,470.59,751.18,408.77,746.15Z" style="fill:#d27186"/><path d="M459.75,872.55a335.8,335.8,0,0,1-52.62,51.09c-18.73,14.51-40.68,27.15-64.84,31.38a84.77,84.77,0,0,1-33.72-.73c19.72,15.22,41.16,30.78,41.25,30.7.15.12,47.93-34.68,66.45-51.08,22.12-19.59,42.39-41.41,56.5-66.37a76.55,76.55,0,0,0,8.92-25.83A244.54,244.54,0,0,1,459.75,872.55Z" style="fill:#040504;opacity:0.12;mix-blend-mode:multiply"/><path d="M458.72,853l-48.57,1.23q-8.77-31.87-17.57-63.76c-.85-3.07-5.41-2.84-6.38,0q-18.79,55.5-37.6,111c-.73,2.15-1.45,4.29-2.18,6.43q-12.78-36.52-25.57-73.06-2-5.87-4.1-11.72c-.82-2.36-4.71-3.29-6-.74l-18.59,35.49H237.77a3.12,3.12,0,1,0,0,6.23h56.4A3.34,3.34,0,0,0,297,862.5L313,832.08q13.13,37.47,26.24,74.95,2,5.87,4.1,11.72a3.4,3.4,0,0,0,6.37,0q18.81-55.5,37.6-111l1.8-5.31q7.68,27.87,15.37,55.74a3.31,3.31,0,0,0,3.18,2.28l51.11-1.29C463,859.07,463,852.84,458.72,853Z" style="fill:#fff"/><polygon points="223.34 846.83 232.02 851.55 240.33 848.94 241.78 850.42 240.03 852.28 247.54 852.1 252.34 855.87 251.96 863.99 246.5 870.36 238.48 869.13 230.96 863.09 218.8 857.15 223.34 846.83" style="fill:#eacdb0"/><path d="M200.78,832.38A15.06,15.06,0,0,1,196,819.23c.61-5.13,2.73-10,4.52-14.8a126.48,126.48,0,0,0,7.76-48.32c-.59-16.32-22.51,0-26.09,6.7-4,7.39-4.82,16.06-6.92,24.06-2.83,10.73-5.22,21.59-7.18,32.51-1.24,6.92-5.94,22.93.61,28.22a20.24,20.24,0,0,0,6.1,3c3.37,1.2,43.87,14,44.89,12.11,0,0,9-17,9-17C220.47,842.32,207.7,839.17,200.78,832.38Z" style="fill:#49529a"/><path d="M211,805.33a7.34,7.34,0,0,0,.87-.09c6.67-1.14,17.37-3.3,20.47-10.32,3.17-7.2-2.47-20.27-3.4-27.75-1.41-11.37-1.88-22.84-2.43-34.28-.49-10.32,3.19-20.48,8.59-29.28s12.45-16.45,19.4-24.09c2.89-3.17,5.88-6.57,6.77-10.77,1-4.65-.89-9.56-3.95-13.18C252.63,650,247,647.21,239.91,647c-25-.59-43.81,14.2-50.9,38.62-10.17,35,2.53,68.39.64,103.22A33.26,33.26,0,0,1,184,805.59C184.91,804.28,205.64,805.63,211,805.33Z" style="fill:#292949"/><path d="M780,578.9H724.76V522.65a6.21,6.21,0,0,0-6.09-6.15H686.06a6.21,6.21,0,0,0-6.09,6.15V578.9H624.74a6.21,6.21,0,0,0-6.09,6.16v33.18a5.86,5.86,0,0,0,1.73,4.3,5.8,5.8,0,0,0,4.36,1.86H680v56.24a6.21,6.21,0,0,0,6.09,6.16h32.61a5.78,5.78,0,0,0,4.27-1.78,5.92,5.92,0,0,0,1.82-4.38V624.4H780a6.21,6.21,0,0,0,6.09-6.16V585.06A6.21,6.21,0,0,0,780,578.9Z" style="fill:#d27186"/></g></g></g></svg>