<svg xmlns="http://www.w3.org/2000/svg" xmlns:xlink="http://www.w3.org/1999/xlink" viewBox="0 0 920 1480"><defs><linearGradient id="beb36bba-68a3-425a-90ea-abee2e4b2ef7" y1="740" x2="920" y2="740" gradientTransform="translate(1200 280) rotate(90)" gradientUnits="userSpaceOnUse"><stop offset="0" stop-color="#ebebeb"/><stop offset="1" stop-color="#fff"/></linearGradient><linearGradient id="bd408d8b-9125-4534-8058-7f81d47d2d94" x1="1082.71" y1="42.91" x2="-366.7" y2="1382.51" gradientUnits="userSpaceOnUse"><stop offset="0" stop-color="#f9f1f5"/><stop offset="1" stop-color="#cbd8ed"/></linearGradient></defs><g style="isolation:isolate"><g id="f5fb82db-bae3-4d23-b446-09dd595bfe07" data-name="Image 02"><rect x="-280" y="280" width="1480" height="920" transform="translate(-280 1200) rotate(-90)" style="fill:url(#beb36bba-68a3-425a-90ea-abee2e4b2ef7)"/><path d="M920,0H86.49c-7.74,57.37,38.62,105.1,90.4,110.78,34.66,3.8,69.22-5.76,103.33-13.73S350,82.7,383.67,92.69s65.09,40.4,69,80c2.12,21.72-4,43.25-6.31,65-9,84.65,50.43,171,124.43,180.81,34.94,4.65,70-5.64,105.14-6.95S750.41,421,769.13,455c22.7,41.33,5,95.65-17,137.5s-49.06,86-43.76,134.43c10.23,93.68,129.13,126.08,149.1,217.68,6,27.56,1.84,56.49-1.71,84.6s-6.33,57.59,2.18,84.26,31.83,49.33,56.35,44.94A35.47,35.47,0,0,0,920,1157Z" style="fill:url(#bd408d8b-9125-4534-8058-7f81d47d2d94)"/><g id="bf09e953-7eb8-48ca-ab88-c20ae7d72d32" data-name="Graphic Elements"><path d="M757.78,1159.19H122.88c-16.94,0-30.8,8.39-30.8,18.65h0c0,7.1,6.65,13.31,16.36,16.45H61.28c-16.94,0-30.8,8.39-30.8,18.65h0c0,10.26,13.86,18.65,30.8,18.65H77.72c-4.59,3.26-7.38,7.47-7.38,12.07v7.46c0,10.25,13.86,18.65,30.8,18.65H728.07c16.94,0,30.8-8.4,30.8-18.65v-7.46c0-10.26-13.86-18.65-30.8-18.65l-35.87.41a17.05,17.05,0,0,0,10.15-3.93c5.21-4.6,5.45-11.6,2.89-17.4-1.65-3.75-4.3-6.73-10.87-7.86l63.41.26c16.94,0,30.8-8.4,30.8-18.65h0C788.58,1167.58,774.72,1159.19,757.78,1159.19Z" style="fill:#fff"/><polygon points="203 821.39 277.61 870.04 335.38 817.86 345.32 829.67 298.11 898 273.88 907.32 213 881.85 203 821.39" style="fill:#23253f"/><polygon points="336.97 821.86 335.34 803.17 344.68 794.72 366.48 800.5 364.11 813.4 341.72 828.83 336.97 821.86" style="fill:#c88a7b"/><polygon points="276.58 1014.55 276.58 1092.15 255.42 1217.36 234.84 1217.36 239.55 1106.84 226.03 1016.32 276.58 1014.55" style="fill:#23253f"/><path d="M237,835.77l-43.85-14.72S180,859.77,165.88,921.41,181.36,1059,181.36,1059s97.11-28.68,116.54-33.59L267.29,915.74Z" style="fill:#292949"/><polygon points="238.61 1026.73 174.33 1216.98 152.74 1213.03 172.62 1106.49 174.34 996.63 238.61 1026.73" style="fill:#23253f"/><path d="M201.16,759.57c-9.94,7.55-25.27,5.32-34.16,14.12-5.79,5.73-7.21,15.08-4.91,23.08A19.93,19.93,0,0,0,168,806.6a19.12,19.12,0,0,0,6.55,3.46,27,27,0,0,0,9.73,1.23,49.35,49.35,0,0,1-.62,8.84c6-1.29,14.66,8.34,20.68,7-.74-3.46-4.11-17.82-4.85-21.28a25.41,25.41,0,0,0,3.88-3.45,29.7,29.7,0,0,0,5.5-29.92C207.05,767.81,204.1,763.65,201.16,759.57Z" style="fill:#c88a7b"/><polygon points="200.57 764.43 165.8 781.57 175.55 810.29 161.74 808.98 140.22 765.59 185.14 735.01 212.38 733.77 219.08 745.9 209.15 769.23 200.57 764.43" style="fill:#292949"/><path d="M220.91,826.23l-43.85-14.72s-13.22,38.72-27.3,100.37,15.48,137.56,15.48,137.56,85.65-48.21,105.09-53.13l-19.16-90.1Z" style="fill:#fff"/><path d="M244.39,909.84c2.38,8.07,5,17.16,3.72,25.2,0,0-4.75,11.48-5.23,11.05,0-.36-6.4-5.06-8.3-8.71-3.25-6.24-4.31-14.18-4.76-21.38-1.59-25.57-1.46-51.44-7.13-76.42-5.12-1.26-9.64-4.73-6.82-10.15,10,3.18,12.22,25.18,14.84,34.07Z" style="fill:#8ca6d6"/><polygon points="255.42 1217.36 273.64 1225.46 273.64 1230.53 253.07 1232.05 234.25 1229.52 234.84 1217.36 255.42 1217.36" style="fill:#292949"/><polygon points="171.45 1216.19 179.21 1228.65 184.46 1235.64 177.57 1240.4 161.68 1233.98 149.81 1219.27 153.48 1212.91 171.45 1216.19" style="fill:#292949"/><path d="M148.9,913c14-62.55,27.22-101.83,27.22-101.83l43.87,15,.08.22c-.82,2.57-1.67,5.13-2.4,7.72a177.68,177.68,0,0,0-5.79,31.38c-1.72,18.66-1,37.71.61,56.36a371.53,371.53,0,0,0,8.4,53.18,366.06,366.06,0,0,0,23,67c-39.49,10.39-86,22.65-86,22.65S134.87,975.5,148.9,913Z" style="fill:#292949"/><polygon points="356.22 881.78 347.17 869.22 347.17 860.02 352.86 857.98 357.39 865.28 359.29 865.43 362.06 878.13 356.22 881.78" style="fill:#e9c5b0"/><polygon points="391.1 914.68 362.47 875.38 354.65 881.17 379.1 944.76 397.65 937.85 391.1 914.68" style="fill:#aac1e5"/><polygon points="402.94 852.86 384.1 936.78 415.03 944.76 411.55 854.81 402.94 852.86" style="fill:#aac1e5"/><path d="M417,832.9c1.77,5.11,2.83,11,.1,15.7-1.41,2.41-3.66,4.18-5.58,6.21s-3.6,4.61-3.37,7.39c.48,5.71,7.94,7.79,11.08,12.58,4.15,6.35-.4,15.29,2.62,22.25,2,4.65,7.14,7.37,12.19,7.76s10.05-1.18,14.74-3.11,9.25-4.23,14.18-5.42c9.22-2.24,18.86-.43,28.34,0s19.93-.82,26.47-7.69c3.37-3.53,5.33-9.11,2.9-13.35-2-3.49-6.36-5.12-8.31-8.63-2.41-4.36-.29-9.71,1.63-14.29s3.5-10.32.34-14.16-9.28-3.39-14.25-2.35-10.86,2-14.51-1.56c-3.83-3.71-2.78-9.95-3.63-15.21-1.48-9.22-9.63-16.29-18.57-19s-18.54-1.78-27.74-.21c-5,.86-10.09,1.94-14.38,4.64-4.53,2.83-6.79,7-7.9,12C412.17,822.06,415.26,827.79,417,832.9Z" style="fill:#292949"/><path d="M415,1116.52,416.1,1133l10.12,80.43-10.12,9s-1.15,7.45,7.44,6.87c2.56-.17,11.62-11.68,11.62-11.68l-1.31-5.27,6.37-60.12-.06-17.47,3-19.39Z" style="fill:#e9c5b0"/><path d="M449.32,1106.91l5.67,23,42.74,84.35s-6.68,11.67-2.45,12.68,11.5-.41,11.52-13.6c-4.88-16-18.92-72.27-18.92-72.27l-9-14,.13-26.29Z" style="fill:#e9c5b0"/><path d="M499.29,1027.64c.36-7-1.87-25.2-4.16-31.72-8.37-23.8-10-35.53-10-54.9s1.63-80.79,1.63-80.79l-19.44-16.62-39.25-.3-19.87,6.55S404,927.14,402.82,952c-.86,17.78-2.09,33.17-3.71,53.76,0,0-4.56,47,2.48,97.33,0,0,1.57,16.72,2.27,18.18.1.5.15.77.15.77h79.88v-28.7q4-13.82,7.57-27.73C494.53,1053.86,498.61,1040.6,499.29,1027.64Z" style="fill:#f7f7f6"/><path d="M491.83,847.06l2.82,12.61s-8.95,69-9.5,81.35,15.36,61.67,15.36,61.67l-65.9,8.59s-9.69-52.68-12.48-78.85,37.08-90,37.08-90Z" style="fill:#8ca6d6"/><path d="M416.39,846.48,403,852.86s1.89,78.63-1.56,98.61c-2.1,12.17-10.29,51.59-10.29,51.59l21.28,7.29s13.1-49.32,15.71-75.49-.24-91.25-.24-91.25Z" style="fill:#8ca6d6"/><path d="M419,817.67c-1.74,6.75,2.26,13.43,5.77,19.13,1.43,2.33,3.66,5.56,1.81,8.22-2.07,3-7.21,2.38-9.48.16A13.87,13.87,0,0,1,414,839.4c-3.05-9.31-7.31-22.34-6.48-32.12.67-7.84,10.29-21.77,20.19-16.79a10.3,10.3,0,0,1,3.94,4.28A8.05,8.05,0,0,1,433,798c.47,4.54-3.91,5.71-6.79,8.15A22.94,22.94,0,0,0,419,817.67Z" style="fill:#292949"/><path d="M435.54,841.94c-6.62-.84-12.15-5.47-15.11-11s-3.67-12-3.55-18.22c.38-20.79,27.95-21.95,38.67-7C464.9,818.7,454.78,844.38,435.54,841.94Z" style="fill:#e9c5b0"/><path d="M454.36,815.49c.23,2.52,1.51,5.19,1.86,7.77.65,4.77-.42,11,1.33,15.3a29.37,29.37,0,0,0,14.29-7c3.66-3.39,3-8.43,3.82-13.42.76-4.61,1.72-9.25,1.46-13.92-1.45-25.58-27-39.56-49.45-28-8.5,4.37-12.22,15.46-6,22.75,6.73,7.84,20.4,4.44,28.46,10.25A13.79,13.79,0,0,1,454.36,815.49Z" style="fill:#292949"/><path d="M435,839.79c.34,1.55.67,3.1,1,4.65.15.71.09,2.74.71,3.23a1.63,1.63,0,0,0,1.2.16c1.2-.15,11.9-1.51,11.78-2.19a37.07,37.07,0,0,0-1.23-5.35c-.46-1.41-.63-4.06-1.48-5.13a19.48,19.48,0,0,1-5.84,2.62q-3.09.88-6.23,1.65Z" style="fill:#e9c5b0"/><path d="M434.47,1213.79c.26,1,1.89,9,1.89,9l-12,11.24h-8.14l-4.84-4.43v-3.59l13.88-11.58Z" style="fill:#292949"/><polygon points="494.35 1219.39 489.29 1234.66 494.35 1236.87 499.07 1235.02 508.44 1222.32 509.91 1217.98 507.11 1214.2 494.35 1219.39" style="fill:#292949"/><path d="M510.62,926.87l-35-37.85-10.55-45-5.9-1.56,32.62,4.6,7.5,17.28,43.35,52.81-.09.32C529.2,918.54,524,924.92,510.62,926.87Z" style="fill:#aac1e5"/><path d="M619.35,1213.88l13.44,9.52,4.48,7.28a52.23,52.23,0,0,1-7.84,2.8c-2.8.56-24.65-2.8-24.65-2.8V1217.8Z" style="fill:#292949"/><path d="M549.29,1220.32l6.37,8.1s4.92,10.74,2.14,10.41-18-.46-18.92-2.26-8.59-8.37-9.57-9.61.7-10.94.7-10.94Z" style="fill:#292949"/><path d="M598.22,1028.14l-20.83,94-28.1,98.19L529.82,1218l10.28-104.84s-8.09-97.44-6.37-126Z" style="fill:#23253f"/><polygon points="641.2 1025.09 624.39 1217.8 604.22 1217.8 598.06 1119.2 586.48 1031.91 630.55 980.27 641.2 1025.09" style="fill:#23253f"/><polygon points="533.35 853.48 533.35 853.48 533.35 853.48 533.35 853.48" style="fill:none"/><path d="M629,912.21c-13.84-50.62-2-76.21-26-89,0,0-28.13-12.58-51,6.15l-1,.79-17.66,23.31h0L521.09,981.85h0c1.51,53.22-.74,60.91,9.11,61.13,11.18.26,37.36-15.51,47.08-15.57s74.84.86,90.31-19.25S642.79,962.83,629,912.21Z" style="fill:#292949"/><polygon points="576.3 823.35 569.01 824.09 568.74 831.5 600.43 904.89 604.35 871.95 594.74 825.1 576.3 823.35" style="fill:#fff"/><path d="M603.64,878c-.25-3-.56-5.62-.95-7.76-2.64-14.8-14.54-33.57-14.54-33.57a78.36,78.36,0,0,1-1.38-7.9l-8.94-.86,1.16,9.19,4.08,3.75s11.56,34.89,12.65,49.12c.11,1.49.19,3,.24,4.58l4.47,10.36Z" style="fill:#d27186"/><polygon points="605.94 930.69 600.47 1016 622.38 1015.91 637.46 1014.7 614.24 942.94 605.94 930.69" style="fill:#fff"/><path d="M588.37,824.86l-14.71,3.29a75.19,75.19,0,0,1-3-11.63c-4.41-.09-9.68-.67-11.73-4.58a12.22,12.22,0,0,1-1.07-4c-.85-5.69-3.47-11.14-2.54-17.07.31-2-.58-4-.1-5.93.85-3.39,3.9-5.75,7-7.39,7.86-4.2,17.54-5.4,25.8-2.07a13.66,13.66,0,0,1,5.79,4c2.25,2.88,2.57,6.78,2.79,10.43l.63,10.1c.24,3.88.23,8.37-2.76,10.84-1.59,1.32-3.82,1.82-5.12,3.42C587,817.06,588.86,821.26,588.37,824.86Z" style="fill:#e7cbac"/><path d="M596.32,747.5a15.46,15.46,0,0,1-3.53,0c-3.93-.58-7.22-3-11.33-3.41-8.33-.87-17.67,2.1-24.24,7.22-6.29,4.89-15.65,8.65-20.92,14.37a20,20,0,0,0-4.39,8.58,30.18,30.18,0,0,0,9.92,30.34,43.29,43.29,0,0,0,6.32,4.15c4.57,2.54,10.07,5.71,15.14,5.54-1.25-4.18-9.32-16-7.27-20.42,2.73-5.88,10.66-7.89,16.46-8.89,6.92-1.18,11.88-4.84,18.7-6.32,3.47-.75,7.53-1.11,9.56-4,2.35-3.37,6.58-13.2,7.15-17.17a9.3,9.3,0,0,0-4.41-8.9C600.9,747,598.68,747.29,596.32,747.5Z" style="fill:#292949"/><polygon points="611.25 829.6 645.05 861.93 679.84 823.42 692.26 838.33 655.61 896.1 641.32 896.1 616.47 881.81 611.25 829.6" style="fill:#252642"/><path d="M780,713.79c-47.33,19.24-76.3.75-80.25-2,0,0-.13-.33-.24-.17-.15-.11-.16.24-.16.24-2.78,4-23.76,31.18-74.81,29.12,0,0,7.92,89.82,42.9,120.91,37.36,33.21,65.25,40.35,65.36,40.23.15.08,24.22-15.91,47.85-60C802.76,800.83,780,713.79,780,713.79Z" style="fill:#49529a"/><path d="M774.4,724.15c-43,17.28-69.2.89-72.78-1.58,0,0-.11-.29-.21-.14-.14-.1-.15.21-.15.21-2.53,3.53-21.63,27.84-67.92,26.16,0,0,6.91,80,38.55,107.58,33.79,29.47,59.4,37.87,59.5,37.76.14.06,21.67-16.36,43.22-55.71C794.78,801.62,774.4,724.15,774.4,724.15Z" style="fill:#515da2"/><path d="M702.6,730.41s0-.33.16-.23c.1-.14.22.16.22.16,3.68,2.54,30.15,19.08,73.62,2.66-1.62-8-2.93-12.94-2.93-12.94-43,17.28-69.19.89-72.77-1.58,0,0-.11-.29-.21-.15-.14-.09-.15.22-.15.22-2.53,3.53-21.63,27.84-67.93,26.16,0,0,.44,5.1,1.61,13.17C680.7,758.59,700,734,702.6,730.41Z" style="fill:#5863a7"/><g style="opacity:0.34"><path d="M765,748.36c-32.45,13.19-56.46.41-59.17-1.5,0,0-.09-.23-.16-.12-.11-.07-.12.16-.12.16-1.9,2.72-19.95,22.81-54.95,21.4,0,0,9.09,60.15,33.08,81.47,25.61,22.77,44.73,27.66,44.81,27.58s16.6-10.91,32.8-41.14C776.43,807.92,765,748.36,765,748.36Z" style="fill:#fff"/></g><path d="M548.14,834l-14.91,19.26-1.86,20.5,51.11,59.88c1.12-2.15,97.26-37.85,97.26-37.85L672,877.08l-82,21.53Z" style="fill:#252642"/><path d="M673.11,879.82c-.21-1.13,2.28-11.13,2.28-11.13l14.83-6.86,7.47,6.64-10.17,8.58-.39,4.67L676.92,889Z" style="fill:#e7cbac"/><path d="M417.41,920.51c-14.83-1.21-33.49,6.71-37.94,19.37-4.46-12.66-27.21-20.45-42-19.25-39.14,3.19-52.38,46.84-35.79,76.18,8.93,15.8,21.76,29.61,35.76,42,11.73,10.39,42,32.42,42.07,32.34.09.08,30.33-22,42.06-32.34,14-12.4,26.83-26.21,35.76-42C473.88,967.47,456.55,923.7,417.41,920.51Z" style="fill:#d27186"/><g style="opacity:0.12;mix-blend-mode:multiply"><path d="M449.68,1000.52a212.55,212.55,0,0,1-33.31,32.35c-11.85,9.18-25.75,17.18-41,19.86a53.79,53.79,0,0,1-21.34-.46c12.48,9.63,26.05,19.48,26.11,19.43s30.33-22,42.06-32.34c14-12.4,26.83-26.21,35.76-42A48.62,48.62,0,0,0,463.57,981,153,153,0,0,1,449.68,1000.52Z" style="fill:#040504"/></g><path d="M449,988.12l-30.74.78-11.13-40.36c-.53-1.95-3.42-1.8-4,0q-11.91,35.13-23.81,70.25l-1.38,4.07q-8.08-23.11-16.18-46.25l-2.6-7.41c-.52-1.49-3-2.08-3.82-.47Q349.46,980,343.57,991.2h-34.4a2,2,0,1,0,0,3.94h35.7a2.1,2.1,0,0,0,1.81-1l10.08-19.26q8.3,23.73,16.6,47.45c.87,2.48,1.73,4.95,2.6,7.42a2.16,2.16,0,0,0,4,0q11.89-35.13,23.8-70.26l1.14-3.36,9.72,35.28a2.11,2.11,0,0,0,2,1.45l32.35-.82C451.72,992,451.73,988.05,449,988.12Z" style="fill:#fff"/><path d="M331.45,589.41v-5.53l2.55-5.22a1.75,1.75,0,0,1,2.55.06l2.14,5.16v5.53c2,0,5.27,1.57,5.27,3.51a3.58,3.58,0,0,1-3.63,3.52h-1.64V783.92c0,10.57,5.59,19.37,13.62,19.18,6.23-.14,11.65-5.43,12.57-14.07a3.81,3.81,0,0,1,3.82-3.39h.15a3.75,3.75,0,0,1,3.81,4.15c-1.58,12.29-11.33,21.08-20.59,21.08a18.37,18.37,0,0,1-16.61-9.4c-4.28-7.48-4-15.7-4-23.91V596.44h-1.12a3.58,3.58,0,0,1-3.64-3.52C326.69,591,329.45,589.41,331.45,589.41Z" style="fill:#292949"/><polygon points="331.45 694.5 338.76 686.91 338.76 674.36 331.45 674.36 331.45 694.5" style="fill:#040504;opacity:0.26"/><path d="M288.37,693.38l-.73.35-1.06-.35h1.79Z" style="fill:none"/><path d="M382.08,692.44,381,685.53A162.28,162.28,0,0,0,354.05,619L336.58,593.8a113.35,113.35,0,0,1,107.63,98.82,109.75,109.75,0,0,0-31.27-4.33A112.63,112.63,0,0,0,382.08,692.44Z" style="fill:#8ca6d6"/><path d="M290.7,678.55l-3,14.83h-1.12a108.28,108.28,0,0,0-33.68-5.09,110.6,110.6,0,0,0-33.82,5.05A113.42,113.42,0,0,1,331.7,593.69c1.21,0,2.42,0,3.63.07l-14,20.4C304.26,635.21,296.4,656.53,290.7,678.55Z" style="fill:#8ca6d6"/><path d="M381,685.53l1.13,6.91-.3.08c-11.78-5.23-27.93-8.24-45.75-8.24-18.78,0-35.72,3.33-47.66,9.1h-.67l3-14.83c5.7-22,13.56-43.34,30.67-64.39l14-20.4,1.25,0L354.05,619A162.28,162.28,0,0,1,381,685.53Z" style="fill:#aac1e5"/><path d="M382.08,692.44l0,.23-.33-.15Z" style="fill:#fff"/><path d="M383.61,693.38h-1.38l-.12-.71C382.62,692.9,383.12,693.14,383.61,693.38Z" style="fill:#fff"/><path d="M382.11,692.67l.12.71H379c.91-.3,1.83-.58,2.77-.86Z" style="fill:#fff"/><path d="M355.58,643H341.17V628.34a1.62,1.62,0,0,0-1.59-1.61h-8.51a1.62,1.62,0,0,0-1.58,1.61V643H315.08a1.62,1.62,0,0,0-1.59,1.61v8.66a1.6,1.6,0,0,0,1.59,1.61h14.41v14.67a1.62,1.62,0,0,0,1.58,1.61h8.51a1.53,1.53,0,0,0,1.12-.47,1.56,1.56,0,0,0,.47-1.14V654.89h14.41a1.62,1.62,0,0,0,1.59-1.61v-8.66A1.62,1.62,0,0,0,355.58,643Z" style="fill:#fff"/><polygon points="185.11 839.69 207.86 843.51 220.26 920.35 288.98 934.25 285.65 952.51 199.49 948.56 166.38 881.38 169.01 855.17 185.11 839.69" style="fill:#23253f"/><path d="M288.38,937.56c1-.11,14.62-10.17,14.62-10.17l18.3,5.12-4.11,11.4-12.26.56-3.41,3.84-14.85-1.41Z" style="fill:#c88a7b"/><path d="M524,916.14s4.33-1.24,18.67,1.33l-2.91,20.18-74.34,16.24-7.06-10.95Z" style="fill:#aac1e5"/><polygon points="463.44 942.75 455.39 942.55 455.57 947.36 447.11 953.61 455.46 959.04 466.16 953.5 463.44 942.75" style="fill:#e9c5b0"/></g></g></g></svg>