<svg xmlns="http://www.w3.org/2000/svg" xmlns:xlink="http://www.w3.org/1999/xlink" viewBox="0 0 920 1480"><defs><linearGradient id="a0e8780b-8cdb-496b-8be6-8d7b00ebf77c" y1="740" x2="920" y2="740" gradientTransform="translate(1200 280) rotate(90)" gradientUnits="userSpaceOnUse"><stop offset="0" stop-color="#ebebeb"/><stop offset="1" stop-color="#fff"/></linearGradient><linearGradient id="bd257fbe-847b-4ba2-98aa-17b515ed1a4a" x1="1082.71" y1="42.91" x2="-366.7" y2="1382.51" gradientUnits="userSpaceOnUse"><stop offset="0" stop-color="#f9f1f5"/><stop offset="1" stop-color="#cbd8ed"/></linearGradient></defs><g style="isolation:isolate"><g id="ba3b852e-1488-4a65-a41f-796a92b94312" data-name="Image 04"><rect x="-280" y="280" width="1480" height="920" transform="translate(-280 1200) rotate(-90)" style="fill:url(#a0e8780b-8cdb-496b-8be6-8d7b00ebf77c)"/><path d="M920,0H86.49c-7.74,57.37,38.62,105.1,90.4,110.78,34.66,3.8,69.22-5.76,103.33-13.73S350,82.7,383.67,92.69s65.09,40.4,69,80c2.12,21.72-4,43.25-6.31,65-9,84.65,50.43,171,124.43,180.81,34.94,4.65,70-5.64,105.14-6.95S750.41,421,769.13,455c22.7,41.33,5,95.65-17,137.5s-49.06,86-43.76,134.43c10.23,93.68,129.13,126.08,149.1,217.68,6,27.56,1.84,56.49-1.71,84.6s-6.33,57.59,2.18,84.26,31.83,49.33,56.35,44.94A35.47,35.47,0,0,0,920,1157Z" style="fill:url(#bd257fbe-847b-4ba2-98aa-17b515ed1a4a)"/><g id="a9941d83-8448-4c03-a16b-35fbd66ba6b6" data-name="Graphic Elements"><path d="M830.21,1126.43H153.29c-21.41,0-38.93,11.19-38.93,24.86h0c0,9.46,8.4,17.73,20.68,21.92H75.43c-21.41,0-38.93,11.19-38.93,24.86h0c0,13.67,17.52,24.85,38.93,24.85H96.2c-5.8,4.34-9.32,10-9.32,16.08v9.94c0,13.67,17.52,24.85,38.93,24.85H792.66c21.41,0,38.93-11.18,38.93-24.85V1239c0-13.67-17.52-24.85-38.93-24.85l-29,.55a20.94,20.94,0,0,0,12.83-5.24c6.59-6.13,6.89-15.46,3.66-23.18-2.09-5-5.44-9-13.74-10.48l63.8.34c21.41,0,38.93-11.18,38.93-24.85h0C869.14,1137.62,851.62,1126.43,830.21,1126.43Z" style="fill:#fff"/><polygon points="258.68 771.67 275.34 781.77 318.93 848.6 377.43 800.16 394.48 815.18 326.92 901.64 309.27 889.41 258.68 771.67" style="fill:#8aa5d5"/><path d="M406.58,523.21v-7.54l-3.47-7.09a2.4,2.4,0,0,0-3.48.07l-2.9,7v7.54c-2.73,0-7.19,2.14-7.19,4.78a4.87,4.87,0,0,0,4.95,4.79h2.24V788c0,14.4-7.61,26.38-18.55,26.13-8.47-.2-15.87-7.41-17.11-19.17a5.2,5.2,0,0,0-5.21-4.61h-.2a5.11,5.11,0,0,0-5.19,5.65c2.16,16.73,15.43,28.7,28,28.7,9.85,0,17.93-4.57,22.63-12.79,5.82-10.19,5.45-21.38,5.45-32.56V532.78h1.53a4.87,4.87,0,0,0,4.95-4.79C413.06,525.35,409.31,523.21,406.58,523.21Z" style="fill:#292949"/><g style="opacity:0.26"><polygon points="406.58 666.3 396.63 655.95 396.63 638.87 406.58 638.87 406.58 666.3" style="fill:#040504"/></g><path d="M465.24,664.76c.33.16.67.32,1,.49l1.44-.49h-2.43Z" style="fill:none"/><path d="M337.65,663.48l1.53-9.4a221,221,0,0,1,36.63-90.64l23.79-34.25A154.35,154.35,0,0,0,253.05,663.73a149.83,149.83,0,0,1,42.58-5.9A153.5,153.5,0,0,1,337.65,663.48Z" style="fill:#2f3c80"/><path d="M462.07,644.57l4.08,20.19h1.52a147.59,147.59,0,0,1,45.86-6.93,150.83,150.83,0,0,1,46.05,6.88A154.44,154.44,0,0,0,406.25,529c-1.66,0-3.3,0-4.95.09l19,27.78C443.6,585.57,454.3,614.59,462.07,644.57Z" style="fill:#2f3c80"/><path d="M339.18,654.08l-1.53,9.4.41.12c16-7.13,38-11.22,62.29-11.22,25.56,0,48.63,4.54,64.89,12.38h.91l-4.08-20.19c-7.77-30-18.47-59-41.76-87.66l-19-27.78c-.57,0-1.13,0-1.7.06l-23.79,34.25A221,221,0,0,0,339.18,654.08Z" style="fill:#5861a5"/><path d="M337.65,663.48l0,.33.46-.21Z" style="fill:#fff"/><path d="M518.72,1059.26c33.64,0,60.87,39.1,60.87,87.33s-27.27,87.33-60.92,87.33-60.92-39.1-60.92-87.33,27.28-87.33,60.92-87.33Zm-.05-8.45a53.63,53.63,0,0,0-28.09,8.08A73.53,73.53,0,0,0,468.66,1080c-12.48,17.9-19.36,41.55-19.36,66.59s6.88,48.69,19.36,66.59a73.37,73.37,0,0,0,21.92,21.1,52.83,52.83,0,0,0,56.19,0,73.34,73.34,0,0,0,21.91-21.1c12.49-17.9,19.36-41.55,19.36-66.59s-6.87-48.69-19.36-66.59a73.5,73.5,0,0,0-21.91-21.11,53.67,53.67,0,0,0-28.1-8.08Z" style="fill:#5b5b5b"/><path d="M518.72,1066.3c13.9,0,27.1,8,37.25,22.57,10.69,15.32,16.58,35.82,16.58,57.72s-5.89,42.4-16.58,57.72c-10.15,14.55-23.4,22.57-37.3,22.57s-27.15-8-37.3-22.57c-10.69-15.32-16.58-35.82-16.58-57.72s5.89-42.4,16.58-57.72c10.15-14.56,23.4-22.57,37.3-22.57Zm-.05-7c-33.64,0-60.92,39.1-60.92,87.33s27.28,87.33,60.92,87.33,60.92-39.1,60.92-87.33-27.27-87.33-60.92-87.33Z" style="fill:#acb6bc"/><rect x="517.61" y="1064.19" width="2.11" height="82.05" style="fill:#acb6bc"/><rect x="500.25" y="1076.23" width="2.11" height="74.31" transform="translate(-462.13 363.24) rotate(-27.86)" style="fill:#acb6bc"/><rect x="489.97" y="1096.12" width="2.11" height="65.36" transform="translate(-725.68 941.9) rotate(-57.76)" style="fill:#acb6bc"/><rect x="457.75" y="1145.18" width="60.92" height="2.11" style="fill:#acb6bc"/><rect x="460.29" y="1162.05" width="63.25" height="2.11" transform="translate(-544.54 441.62) rotate(-32.23)" style="fill:#acb6bc"/><rect x="463.28" y="1178.56" width="75.51" height="2.11" transform="translate(-775.97 1071.07) rotate(-62.13)" style="fill:#acb6bc"/><rect x="517.61" y="1146.24" width="2.11" height="82.05" style="fill:#acb6bc"/><rect x="535.28" y="1141.86" width="2.11" height="75.6" transform="translate(-489.04 387.28) rotate(-27.86)" style="fill:#acb6bc"/><rect x="544.68" y="1131.31" width="2.11" height="64" transform="matrix(0.53, -0.85, 0.85, 0.53, -729.34, 1004.29)" style="fill:#acb6bc"/><rect x="518.67" y="1145.18" width="57.7" height="2.11" style="fill:#acb6bc"/><rect x="513.83" y="1128.42" width="62.84" height="2.11" transform="translate(-518.36 464.83) rotate(-32.23)" style="fill:#acb6bc"/><rect x="498.37" y="1111.5" width="76.2" height="2.11" transform="translate(-697.82 1066.75) rotate(-62.13)" style="fill:#acb6bc"/><path d="M527.51,1146.59c0,7-4,12.68-8.84,12.68s-8.84-5.68-8.84-12.68,4-12.68,8.84-12.68S527.51,1139.59,527.51,1146.59Z" style="fill:#acb6bc"/><path d="M518.72,1133.91c4.88,0,8.79,5.68,8.79,12.68s-4,12.68-8.84,12.68-8.84-5.68-8.84-12.68,4-12.68,8.84-12.68Zm-.05-3.52c-6.93,0-12.36,7.12-12.36,16.2s5.43,16.2,12.36,16.2,12.37-7.12,12.37-16.2-5.44-16.2-12.37-16.2Z" style="fill:#5b5b5b"/><rect x="387.32" y="916.99" width="131" height="38.03" style="fill:#292949"/><polygon points="504.33 1041.3 628.19 1041.3 628.19 1106.09 503.53 1106.09 504.33 1041.3" style="fill:#292949"/><path d="M523.6,1147.29H513V917c0-3.13-.84-5.45-2.57-7.06-3.15-3-8.87-3.29-10.8-3.16h-22.9V896.22h22.37c1.9-.12,11.73-.34,18.49,5.94,3.91,3.62,6,8.75,6,14.83Z" style="fill:#acb6bc"/><rect x="448.6" y="893.75" width="42.96" height="15.49" rx="3.82" style="fill:#446173"/><path d="M633.47,1218.1H622.9V1035.31c0-11-3.85-19.27-11.45-24.53a30,30,0,0,0-11.14-4.7H518.67V995.52h82.39l.33,0a40.2,40.2,0,0,1,16.07,6.53c7.3,5.06,16,14.93,16,33.22Z" style="fill:#acb6bc"/><rect x="500.01" y="1103.08" width="128.18" height="10.56" style="fill:#acb6bc"/><rect x="622.55" y="1178.99" width="11.27" height="35.21" style="fill:#464647"/><circle cx="612.34" cy="1219.48" r="22.18" style="fill:#acb6bc"/><path d="M612.44,1207.86a11.67,11.67,0,1,1-.1,0Zm-.1-10.56a22.19,22.19,0,1,0,22.19,22.18,22.18,22.18,0,0,0-22.19-22.18Z" style="fill:#5b5b5b"/><path d="M624.47,1200.24l-14.93,14.92a5.63,5.63,0,1,0,7.94,7.63L632.25,1208l-7.78-7.78Z" style="fill:#464647"/><polygon points="689.11 1224.76 636.77 1224.76 624.09 1151.67 502.12 1151.67 502.12 1141.11 632.98 1141.11 645.66 1214.2 689.11 1214.2 689.11 1224.76" style="fill:#acb6bc"/><rect x="644.38" y="1210.68" width="46.48" height="15.49" rx="3.97" style="fill:#292949"/><path d="M622.55,1102.69l-9.32-9.54a14.43,14.43,0,0,0-10.29-4.31H503.53v14.08Z" style="fill:#292949"/><polygon points="534.52 1050.81 572.55 1099.4 566.91 1200.11 545.08 1200.11 538.74 1108.56 483.11 1089.54 534.52 1050.81" style="fill:#353b81"/><polygon points="575.37 1050.81 624.66 1078.98 660.58 1195.89 640.86 1205.04 595.09 1099.4 554.24 1087.43 529.59 1064.19 575.37 1050.81" style="fill:#353b81"/><path d="M450.19,890l18.94,1.85c1,.1,1.16-15,1.79-16.2.83-1.57,3.74-2,5.25-3.09a19.75,19.75,0,0,0,5.14-5.33c6.07-9.09,4.27-19.59,4.39-30a23.24,23.24,0,0,0-.88-8.17c-1.64-4.51-5.85-7.2-10-8.91-10.53-4.34-22.83-4.22-32.59,1.86a17.81,17.81,0,0,0-6.56,6.54c-2.35,4.43-1.84,9.53-1.95,14.34a47,47,0,0,0,2.56,16c1.75,5.11,4.71,9.94,9.1,13.09C451.48,876.37,448.54,883.43,450.19,890Z" style="fill:#eacdb0"/><path d="M437.47,848.05a9.43,9.43,0,0,1-1.29-2.72c-.9-3.53,3.16-4,4-7.06.6-2.19.27-5.64,2.82-6.64,2.15-.84,4.44,1.16,6.73.91s3.71-2.57,5.15-4.41,4.09-3.47,5.92-2c.56.44.92,1.11,1.5,1.52,1.43,1,3.35.12,5-.35,3.34-.93,7.62.55,8.48,4a10,10,0,0,0,.45,1.73c.78,1.7,3,1.91,4.87,2s4.13.86,4.31,2.73-2,3.48-1.55,5.3a6.73,6.73,0,0,0,1.56,2.11,4.54,4.54,0,0,1,.61,4.45,20.71,20.71,0,0,0-1.46,2.9c-.67,2.58,2.34,5,4.95,4.53s4.55-2.67,5.84-5c1-1.86,1.82-4,1.3-6.12-.25-1-.81-2-1-3a9.43,9.43,0,0,1,.83-4.7c.94-2.71,1.68-5.73,1.06-8.59A35.21,35.21,0,0,1,497,826c-.13-1.19,0-2.08-.8-3.12-1-1.28-2.49-2.31-2.81-3.92-.43-2.23,1.64-4.27,1.54-6.54a5.52,5.52,0,0,0-1.2-2.9,12.26,12.26,0,0,0-8-4.89c-1.45-.22-3-.18-4.27-.87-2.36-1.26-3.06-4.4-5.06-6.18s-4.88-1.93-7.5-1.66-5.28.87-7.86.31c-3.8-.84-7.06-4.16-10.92-3.72-5.3.6-7.55,7.59-12.5,9.61-3.23,1.32-7.27.32-10.08,2.41-4.05,3-3.15,10.31-4.82,14.68-2.36,6.2-3.54,10.87-.78,17.35.79,1.86,1.78,3.83,1.38,5.83-.17.87-.61,1.66-.86,2.52-.88,3,.61,6.21,2.65,8.55s4.62,4.16,6.6,6.56a19.82,19.82,0,0,0,2.89,3.3,3.8,3.8,0,0,0,4.07.64,2.94,2.94,0,0,1,0-3.16c.51-.76,1.37-1.25,1.75-2.08a3.77,3.77,0,0,0,.22-1.77,16.4,16.4,0,0,0-2.29-7.46C438.1,849,437.78,848.53,437.47,848.05Z" style="fill:#292949"/><path d="M438.09,793.36a5.11,5.11,0,0,0-4.59-1.5c-.68.19-1.28.59-2,.79-2.26.67-4.48-1-6.76-1.59a7.81,7.81,0,0,0-7.21,1.84c-1.28,1.19-2.13,3.23-1.16,4.69.26.39.62.7.88,1.08,1,1.48.08,3.57-1.28,4.7s-3.1,1.7-4.5,2.78a8.15,8.15,0,0,0-2.57,9,8,8,0,0,0,7.78,5.07c1.61-.11,3.27-.72,4.81-.2a14.78,14.78,0,0,1,2.28,1.31c2.68,1.5,6.14.86,8.7-.84s4.38-4.3,6.05-6.9a4.65,4.65,0,0,0,1-3.37c-.87-3.87-4.45-3.35-1.08-7.26C441.21,799.85,441.36,796.31,438.09,793.36Z" style="fill:#292949"/><path d="M579.86,1038.7C551.7,1018,528.24,982.15,514,950.58c-2.53-5.61-23.15-66-33-66l-41.65.59s-41.83,62.33-25.9,144.7c5.11,26.4,9.84,48.25,13.92,65.77,17.08,43.28,56.79,6.59,75.68-8,11-8.52,38.84-15.88,59.13-23.85C580.92,1056.42,593.23,1048.53,579.86,1038.7Z" style="fill:#49529a"/><polygon points="657.55 1197.3 679.6 1202.93 679.6 1210.68 644.38 1210.68 643.14 1203.99 657.55 1197.3" style="fill:#232a35"/><polygon points="564.1 1200.24 576.07 1205.04 576.07 1210.68 545.25 1210.68 545.08 1200.11 564.1 1200.24" style="fill:#232a35"/><path d="M484,886l19.58,12s58.45,68.31,59.16,70.43,5.63,28.17,4.93,27.46-22.54-6.34-22.54-6.34L500.71,948Z" style="fill:#c4996c"/><polygon points="562.69 968.41 547.2 974.04 527.48 1010.66 536.63 1019.11 567.62 995.87 562.69 968.41" style="fill:#d0a472"/><path d="M600.69,912.62c-13.24-7.81-34.36-8.3-44.51,2.24,1.85-14.51-15.65-32.37-30-37.79-38-14.3-71,23-69.43,59.41.83,19.61,6.24,39,13.41,57.52,6,15.5,23.72,50.79,23.85,50.75,0,.12,38.65-8.19,54.49-13.23,18.92-6,37.41-14,53.21-25.62C631,984.26,635.63,933.23,600.69,912.62Z" style="fill:#d27286"/><g style="opacity:0.12;mix-blend-mode:multiply"><path d="M592.84,1006.18a226.56,226.56,0,0,1-46.35,17.14c-15.39,3.8-32.12,5.52-47.63,1.35a52.34,52.34,0,0,1-19.66-10c7.06,15.1,15,30.89,15.11,30.87s38.65-8.19,54.49-13.24c18.92-6,37.42-14,53.22-25.61a55.37,55.37,0,0,0,13-13.67A168.82,168.82,0,0,1,592.84,1006.18Z" style="fill:#040504"/></g><path d="M598.11,993.62l-29-12.94,8.76-44.9a2.18,2.18,0,0,0-3.76-1.8l-55.46,58.9-3.21,3.41,6.84-53c.37-2.83.73-5.67,1.1-8.5.22-1.71-1.79-3.39-3.34-2.17l-21.6,17-32.05-15.35c-2.5-1.2-4.37,2.7-1.86,3.9l33.25,15.92a2.13,2.13,0,0,0,2.14-.16l18.52-14.55-7,54.35c-.37,2.83-.73,5.66-1.1,8.5a2.18,2.18,0,0,0,3.76,1.8l55.46-58.9,2.65-2.82q-3.83,19.62-7.66,39.25a2.19,2.19,0,0,0,1.19,2.33l30.52,13.61C598.78,998.64,600.66,994.75,598.11,993.62Z" style="fill:#fff"/><polygon points="584.52 1017.71 571.88 1005.84 560.63 1007.6 560.24 1015.21 570.72 1020.45 576.07 1023.34 584.52 1017.71" style="fill:#d2b9a1"/><polygon points="482.28 982.04 494.89 987.29 502.82 1005.16 494.22 1007.14 480.99 995.23 482.28 982.04" style="fill:#d2b9a1"/><polygon points="436.29 890.23 389.44 978.27 404.93 995.87 481.7 995.87 483.81 981.79 428.88 966.29 454.23 925.45 439.44 885.3 436.29 890.23" style="fill:#49529a"/><rect x="390.14" y="1041.3" width="109.16" height="64.79" style="fill:#292949"/><path d="M394.72,1146.59H384.15V917c0-3.13-.83-5.45-2.56-7.06-3.15-3-8.88-3.29-10.8-3.16H347.88V896.22h22.37c1.91-.12,11.74-.34,18.5,5.94,3.9,3.62,6,8.75,6,14.83Z" style="fill:#acb6bc"/><rect x="319.71" y="893.75" width="42.96" height="15.49" rx="3.82" style="fill:#292949"/><path d="M504.59,1218.1H494V1035.31c0-11-3.85-19.27-11.46-24.53a29.87,29.87,0,0,0-11.13-4.7H389.79V995.52h82.38l.34,0a40.2,40.2,0,0,1,16.07,6.53c7.3,5.06,16,14.93,16,33.22Z" style="fill:#acb6bc"/><rect x="390.14" y="1103.08" width="109.16" height="10.56" style="fill:#acb6bc"/><polygon points="579.24 1224.76 526.9 1224.76 514.23 1151.67 392.25 1151.67 392.25 1141.11 523.12 1141.11 535.79 1214.2 579.24 1214.2 579.24 1224.76" style="fill:#acb6bc"/><rect x="493.67" y="1178.99" width="11.27" height="35.21" style="fill:#464647"/><circle cx="483.46" cy="1219.48" r="22.18" style="fill:#acb6bc"/><path d="M483.12,1207.86a11.93,11.93,0,0,1,12,11.62,11.62,11.62,0,1,1-11.62-11.62Zm.34-10.56a22.19,22.19,0,1,0,22.18,22.18,22.18,22.18,0,0,0-22.18-22.18Z" style="fill:#5b5b5b"/><path d="M495.58,1200.24l-14.92,14.92a5.63,5.63,0,1,0,7.94,7.63L503.37,1208l-7.79-7.78Z" style="fill:#464647"/><path d="M538.49,1210.68H577a4,4,0,0,1,4,4v7.54a4,4,0,0,1-4,4H538.49a4,4,0,0,1-4-4v-7.54A4,4,0,0,1,538.49,1210.68Z" style="fill:#292949"/><path d="M390.12,1059.26c36.76,0,66.22,39.1,66.22,87.33s-29.79,87.33-66.55,87.33-66.56-39.1-66.56-87.33,29.8-87.33,66.56-87.33Zm-.33-8.45a61.23,61.23,0,0,0-30,7.92,77,77,0,0,0-23.77,21c-13.69,18-21.23,41.71-21.23,66.88s7.54,48.92,21.23,66.87a77,77,0,0,0,23.77,21,60.82,60.82,0,0,0,60,0,77,77,0,0,0,23.77-21c13.69-18,21.22-41.7,21.22-66.87s-7.53-48.92-21.22-66.88a77,77,0,0,0-23.77-21,61.26,61.26,0,0,0-30-7.92Z" style="fill:#5b5b5b"/><path d="M390.12,1066.3c15.53,0,29.92,8.1,41.13,22.81,11.64,15.27,18.05,35.68,18.05,57.48s-6.41,42.21-18.05,57.48c-11.21,14.71-25.93,22.81-41.46,22.81s-30.25-8.1-41.46-22.81c-11.64-15.27-18.05-35.69-18.05-57.48s6.41-42.21,18.05-57.48c11.21-14.71,25.93-22.81,41.46-22.81Zm-.33-7c-36.76,0-66.56,39.1-66.56,87.33s29.8,87.33,66.56,87.33,66.55-39.1,66.55-87.33-29.79-87.33-66.55-87.33Z" style="fill:#acb6bc"/><rect x="388.73" y="1064.19" width="2.11" height="82.05" style="fill:#acb6bc"/><rect x="369.77" y="1075.45" width="2.11" height="75.87" transform="translate(-507.01 334.57) rotate(-30)" style="fill:#acb6bc"/><rect x="358.53" y="1093.93" width="2.11" height="69.74" transform="translate(-797.78 875.81) rotate(-60)" style="fill:#acb6bc"/><rect x="323.23" y="1145.18" width="66.55" height="2.11" style="fill:#acb6bc"/><rect x="326.82" y="1162.05" width="67.49" height="2.11" transform="translate(-533.3 336.17) rotate(-30)" style="fill:#acb6bc"/><rect x="331.97" y="1178.56" width="77.09" height="2.11" transform="translate(-836.31 910.64) rotate(-60)" style="fill:#acb6bc"/><rect x="388.73" y="1146.24" width="2.11" height="82.05" style="fill:#acb6bc"/><rect x="408.03" y="1141.07" width="2.11" height="77.18" transform="translate(-535.02 362.59) rotate(-30)" style="fill:#acb6bc"/><rect x="418.3" y="1129.16" width="2.11" height="68.29" transform="translate(-797.78 944.83) rotate(-60)" style="fill:#acb6bc"/><rect x="389.79" y="1145.18" width="63.03" height="2.11" style="fill:#acb6bc"/><rect x="385.3" y="1128.42" width="67.05" height="2.11" transform="translate(-508.68 360.79) rotate(-30)" style="fill:#acb6bc"/><rect x="370.34" y="1111.5" width="77.79" height="2.11" transform="translate(-758.87 910.64) rotate(-60)" style="fill:#acb6bc"/><ellipse cx="389.79" cy="1146.59" rx="9.66" ry="12.68" style="fill:#acb6bc"/><path d="M390.12,1133.91c5.34,0,9.33,5.68,9.33,12.68s-4.33,12.68-9.66,12.68-9.66-5.68-9.66-12.68,4.32-12.68,9.66-12.68Zm-.33-3.52c-7.27,0-13.18,7.27-13.18,16.2s5.91,16.2,13.18,16.2,13.18-7.27,13.18-16.2-5.91-16.2-13.18-16.2Z" style="fill:#5b5b5b"/><polygon points="182.63 1209.73 182.27 1219.94 202.56 1230.74 213.23 1220.84 203.27 1210.33 182.98 1199.53 182.63 1209.73" style="fill:#232a35"/><polygon points="212.61 956.84 173.72 963.86 196.96 1067.27 181.66 1206.41 201.99 1211.06 255.33 1043.12 255.47 992.93 251.5 963.22 212.61 956.84" style="fill:#292949"/><polygon points="310.29 907.96 311.61 1038.19 286.49 1206.06 267.38 1206.03 255.56 1051.08 229.66 896.1 310.29 907.96" style="fill:#292949"/><polygon points="267.49 1203.78 267.48 1213.98 288.13 1224.22 298.47 1214.03 288.16 1203.81 267.49 1203.78" style="fill:#232a35"/><path d="M161.49,968.09c.26,5.78,8.51,43.42,6.75,44.45q13-4.56,26.37-8a338.75,338.75,0,0,1,71.64-10.62c10.95-.44,22.47-1.16,33.3.8,5.3,1,10.5,2.44,15.72,3.78,1.34.35,15.18,2.86,15.21,3.07-2.48-16.67-1.77-33.37-2.89-50.2a453.13,453.13,0,0,0-6.29-50.73c-4.79-26.27-18.05-48.08-28.65-72.45-5.26-12.09-10.14-24.44-16.94-35.79-5.32-8.88-14.61-21.76-25-25.13-3.51-1.14-7.29-1-11-.87l-33.56,1.29c-4.07.16-8.31.36-11.91,2.29-5.39,2.88-8.14,8.93-10.52,14.57-10.68,25.26-16.76,52.13-19.33,79.58-1.34,14.34-2.51,28.7-3.21,43.07-.77,16-1,32.12-.15,48.15C161.16,957.1,161.21,962.11,161.49,968.09Z" style="fill:#8aa5d5"/><path d="M228.52,835.58c.91,7.19.49,14.47.07,21.7-2.54,44-13.65,98-16.19,142,28.21-5.21,63.11-5.83,101.14-1.25-2.19-16.27-7.07-48.21-9.25-64.49-1.41-10.44-2.81-20.91-5.45-31.06-4.24-16.38-11.57-31.58-18.84-46.63q-20.16-41.7-40.31-83.42a11.87,11.87,0,0,0-2.69-4,9.45,9.45,0,0,0-5.13-1.78c-8.68-1.12-18.46-1.91-27,.12-1.55,9.09,7.44,24.11,10.94,32.23C220.94,810.76,226.86,822.44,228.52,835.58Z" style="fill:#dcd8e6"/><path d="M258.56,709.81a38,38,0,0,1,1.05,17.73c-.26,1.57-.52,3.39.54,4.57s-.49,3.17.81,2.07,5.72-4.94,6.22-6.57a63.08,63.08,0,0,0,2.43-11.69c.37-3.45.42-7.12-1.25-10.16a19.48,19.48,0,0,0-4-4.63c-2.19-2-4.44-4.09-7.2-5.23-4.75-1.95-8.15-.81-4.51,3.55A30.76,30.76,0,0,1,258.56,709.81Z" style="fill:#bbbdbd"/><path d="M214,769.73l20,6.17a125.94,125.94,0,0,0,5.54-17.45c6.13.22,13.5-.24,16.82-6a20.86,20.86,0,0,0,2-6q2.78-12.88,5.57-25.76c.64-3,1.29-6,.85-9-.78-5.22-4.72-9-8.79-11.8-10.39-7-23.68-9.58-35.54-5.18a19.61,19.61,0,0,0-8.51,5.6c-3.46,4.21-4.37,10.11-5.12,15.64q-1,7.65-2.09,15.31c-.8,5.87-1.32,12.71,2.54,16.71,2,2.12,5.06,3.06,6.68,5.59C216.76,758,213.73,764.22,214,769.73Z" style="fill:#eacdb0"/><path d="M261.12,743.41c.23-1.61.51-6.43-2.5-4a4.86,4.86,0,0,0-1.42,2.7,11,11,0,0,1-.95,3c-1.2,2.06-3.85,2.55-6,2.06a5.28,5.28,0,0,1-2.39-1.12,7.88,7.88,0,0,1-1.55-2.16c-1.06-1.89-2.12-3.79-3.19-5.68-1.82-3.26-6.84-3.06-10.17-3.32a21.28,21.28,0,0,0-11.36,1.87l-1.07.58a11.2,11.2,0,0,1-2.68,1.19c-3.17.81-6.43-1.4-7.91-4.45-.67-1.4-1.21-3.12-2.61-3.63a3,3,0,0,0-3.15,1.12,8.7,8.7,0,0,0-1.55,3.36,26.52,26.52,0,0,0-.45,13.43c2.39,9.41,10.24,12.15,18.39,13.65l9.67,1.78c5.89,1.09,12.14,2.14,17.79-.24,5-2.1,8.63-6.67,10.81-11.8A33.71,33.71,0,0,0,261.12,743.41Zm-24,7.63c-3.52,1.43-6.94.84-10.17-.92-1.37-.74-.23-3.07,1.14-2.32,2.67,1.45,5.37,2,8.3.8C237.88,748,238.61,750.45,237.14,751Z" style="fill:#292949"/><path d="M272.07,697.08a46.47,46.47,0,0,0,2.57-6.09,12.85,12.85,0,0,1-6.32-.76c.25-1.24.5-2.48.76-3.72.2-1-13.56-4.65-14.67-5-10.4-3.08-19.91-5.92-30.66-2.24-9.19,3.14-15.94,9.29-19.16,18.46-3.08,8.76-2.59,21.14,1.06,29.7.47-2.4.27-8.35,1.31-10.51a20.93,20.93,0,0,1,3.59-6.05,27.45,27.45,0,0,1,11.5-7.95c7-2.59,14.65-3.14,22.07-2.64,6.79.46,15,1.29,21.16,4.4,3,1.49,3.31,2.39,5.87-.38.45-.49,4.46-6.44,4.2-6.5Z" style="fill:#292949"/><path d="M660.41,1150.08s-4,5.39-9.44-2-8.77-5.39-10.12-2,2.94,2.17,6.74,8.09c6.07,9.44,12.82,16.18,14.84,16.86s8,2,9.06,6.07,2.4-13.49,1.73-14.16Z" style="fill:#d8d8d7"/><path d="M714.07,1173.92s-7,19.28-3.55,24.55,12.79,22.69,11.37,25.64-.69,4.29,1.83,3.34,6-3.29,4.57-9.89-4.35-14.26-2.17-19.8-2.68-21.85-2.68-21.85Z" style="fill:#d8d8d7"/><path d="M689.4,1113s6.74-2.69,8.09,5.4,12.13,20.22,27,27.64c14.5,7.25,29.49,20.22,19.47,41.12s-41,8.78-49.14,0-25.62-11.46-32.36-25.62,0-22.93-.68-27.64S689.4,1113,689.4,1113Z" style="fill:#eaeaea"/><path d="M664.34,1160.47l-.29,3.36s1.63,3.26,6.33,10.93,4.42,28.68,3.84,30.92-2.6,3.61.75,4.66,5,0,7-10.11,2.58-7.81,3.45-13.47-.82-12.69-.82-12.69Z" style="fill:#eaeaea"/><path d="M713.82,1188.87s-3.7,9.87,3.74,16.89,14.27,10.2,16.94,15.31-3.18,6.84,1.28,6.84,7.46-.7,7.06-6.23-9.46-10.34-8.23-18.09,7.2-9.34,7.89-15-16.94-15.31-16.94-15.31l-12.81,16Z" style="fill:#eaeaea"/><path d="M742.94,1181.19c1.1.5,6.86,3.26,11.79-2s5.19-12.86-.37-17.51-9.76.4-9.26,2.11,6.49,8.33.3,13.5C742.42,1179.14,742.94,1181.19,742.94,1181.19Z" style="fill:#eaeaea"/><path d="M659.46,1131.3l2.47,2s12.33,4.17,26.59-11.5c5.64-8.34,3.89-9.77,3.89-9.77l-3.15.65S683.2,1130.93,659.46,1131.3Z" style="fill:#d27286"/><path d="M671.84,1088.13s-1.21-1.9-4.72-2-8.92,5.55-10.22,6-4.43,1.17-1.31,2.4S670.27,1091.67,671.84,1088.13Z" style="fill:#292949"/><path d="M683.85,1096s-5.47-7.72-13.7-7.89a19.65,19.65,0,0,0-12.93,4.93c-1.88,1.56-3.37,3.45-5.14,5.1-1.17,1.1-2.62,1.59-3.77,2.79a13.71,13.71,0,0,0-3.06,11.8c1,3.8-3.47,14.85,9.16,17.74s29.53-4.53,33.19-11S694.57,1106.23,683.85,1096Z" style="fill:#eaeaea"/><path d="M681.78,1096.87s3.79-2.23,6.92-.63,5.63,1.07,5.5,4.58.35,12.3-3.88,14.94-3.15-4.56-5.25-7.07S679.47,1097.91,681.78,1096.87Z" style="fill:#292949"/><polygon points="191.76 771.67 204.91 776.14 245.76 874.03 319.36 891.85 319.01 912.77 238.72 912.77 210.55 898.68 171.37 822.18 176.04 790.93 191.76 771.67" style="fill:#8aa5d5"/><polygon points="319.29 896.1 335.21 884.6 346.48 889.53 347.88 893.75 341.78 893.99 338.73 902.91 350 909.25 344.36 913.47 327.46 913.47 319.29 910.42 319.29 896.1" style="fill:#dabfa4"/><polygon points="396.3 771.23 404.29 771.23 410.83 779.22 408.65 806.1 399.92 807.64 396.3 802.47 391.94 774.13 396.3 771.23" style="fill:#dabfa4"/><polygon points="378.24 800.66 383.22 783.58 397.03 774.13 399.93 781.4 394.12 787.21 394.12 798.83 389.08 810.21 378.24 800.66" style="fill:#eacdb0"/></g></g></g></svg>