<svg xmlns="http://www.w3.org/2000/svg" xmlns:xlink="http://www.w3.org/1999/xlink" viewBox="0 0 294.51 294.51"><defs><radialGradient id="b9fab013-7a2b-4d89-b7b7-f2b5563fbe8d" cx="147.26" cy="147.26" r="142.26" gradientUnits="userSpaceOnUse"><stop offset="0" stop-color="#fff"/><stop offset="0.11" stop-color="#f7faff"/><stop offset="0.29" stop-color="#e1ebff"/><stop offset="0.5" stop-color="#bdd4ff"/><stop offset="0.75" stop-color="#8cb3ff"/><stop offset="1" stop-color="#528dff"/></radialGradient><radialGradient id="bd866cd0-062f-4650-9959-8813f783b7e4" cx="147.26" cy="147.26" r="142.76" xlink:href="#b9fab013-7a2b-4d89-b7b7-f2b5563fbe8d"/><clipPath id="aaddf462-1d0d-41eb-838a-f8747239be24" transform="translate(-2.78 -2.39)"><path d="M144.15,74.13c-3.67-2.07-7.39-.64-10.77,1.38,3.45.39,6.61,2.76,10.05,1.19.75-.29,1.21-.52,1.94-.19C147.84,77,145.23,75.08,144.15,74.13Z" style="fill:#fefefe;clip-rule:evenodd"/></clipPath><clipPath id="a61bb06b-4a55-4e71-a4f2-92efc862063e" transform="translate(-2.78 -2.39)"><path d="M161,74.13c3.66-2.06,7.38-.65,10.75,1.37-3.44.39-6.59,2.76-10,1.19-.74-.29-1.2-.52-1.93-.19C157.31,77,159.9,75.07,161,74.13Z" style="fill:#fefefe;clip-rule:evenodd"/></clipPath></defs><g style="isolation:isolate"><g id="a9e54eac-2795-4acb-a5dc-87599bb0df30" data-name="Layer 4"><circle cx="147.26" cy="147.26" r="142.26" style="stroke-miterlimit:10;fill:url(#b9fab013-7a2b-4d89-b7b7-f2b5563fbe8d);stroke:url(#bd866cd0-062f-4650-9959-8813f783b7e4)"/><g id="e0a58a81-f080-4d8e-a0cd-151674863c9c" data-name="2 copy"><path d="M179.8,80.4c2,8.11-3,12.36-2,14.37.48,1,1.63,2.39,4.16,1.09-2.63,2.92-4.12,2.36-6.25,1.59a5.11,5.11,0,0,0,7.14,1.89c-1.71,2.62-3.44,3-7.44,2.08l2.43,2.58a4.81,4.81,0,0,1-4.31-1.19c.07,5.15-3.37,6.17-4.62,6.35C164.6,109.78,163.49,87,179.8,80.4Z" transform="translate(-2.78 -2.39)" style="fill:#33291c;fill-rule:evenodd"/><path d="M179.76,84.72c.43,9-6.13,14.9-2.62,19.53C172.56,100.08,176.37,90.39,179.76,84.72Z" transform="translate(-2.78 -2.39)" style="fill:#261e15;fill-rule:evenodd"/><path d="M179.25,84.09c-1.83,8.76-9.14,16.78,3.2,15.79C169.4,103.82,175.29,91.11,179.25,84.09Z" transform="translate(-2.78 -2.39)" style="fill:#1a150e;fill-rule:evenodd"/><path d="M174.54,91.67c-.15,5.65-1.33,9,2.88,13C172.22,101.28,173.12,97.25,174.54,91.67Z" transform="translate(-2.78 -2.39)" style="fill:#1a150e;fill-rule:evenodd"/><path d="M174.38,89c1.61,4.22,1.75,7,6.08,8.72C175.6,96.85,175,93.59,174.38,89Z" transform="translate(-2.78 -2.39)" style="fill:#1a150e;fill-rule:evenodd"/><path d="M173.37,100.89c-1.61,4.22-1.75,7-6.08,8.72C172.16,108.7,172.73,105.44,173.37,100.89Z" transform="translate(-2.78 -2.39)" style="fill:#1a150e;fill-rule:evenodd"/><path d="M125.62,79.21c-2,8.11,2.94,12.36,2,14.37-.48,1-1.63,2.39-4.16,1.1,2.63,2.91,4.12,2.35,6.25,1.58a5.11,5.11,0,0,1-7.14,1.89c1.71,2.62,3.44,2.95,7.44,2.08l-2.43,2.58a4.81,4.81,0,0,0,4.31-1.19c-.07,5.15,3.37,6.17,4.62,6.35C140.81,108.59,141.92,85.85,125.62,79.21Z" transform="translate(-2.78 -2.39)" style="fill:#33291c;fill-rule:evenodd"/><path d="M125.65,83.53c-.43,9,6.13,14.9,2.62,19.53C132.85,98.89,129,89.2,125.65,83.53Z" transform="translate(-2.78 -2.39)" style="fill:#261e15;fill-rule:evenodd"/><path d="M126.16,82.9c1.83,8.76,9.14,16.77-3.2,15.79C136,102.63,130.12,89.92,126.16,82.9Z" transform="translate(-2.78 -2.39)" style="fill:#1a150e;fill-rule:evenodd"/><path d="M130.87,90.48c.15,5.65,1.34,9-2.87,13C133.19,100.09,132.29,96.06,130.87,90.48Z" transform="translate(-2.78 -2.39)" style="fill:#1a150e;fill-rule:evenodd"/><path d="M131,87.85c-1.61,4.22-1.75,7-6.08,8.72C129.82,95.66,130.38,92.4,131,87.85Z" transform="translate(-2.78 -2.39)" style="fill:#1a150e;fill-rule:evenodd"/><path d="M132,99.69c1.61,4.23,1.75,7,6.08,8.73C133.25,107.51,132.69,104.25,132,99.69Z" transform="translate(-2.78 -2.39)" style="fill:#1a150e;fill-rule:evenodd"/><path d="M135.93,102.58c1.79,13.75,1.72,24.73,4.81,38.9l38.1-6.82c-8.83-19.75-9.23-22.58-9.23-42.11Z" transform="translate(-2.78 -2.39)" style="fill:#f1b287;fill-rule:evenodd"/><path d="M135.93,102.58c1.79,13.75,1.72,24.73,4.81,38.9,6.67-3.42,20.27-21.46,29.58-31.41-.83-5-.71-9-.71-17.52Z" transform="translate(-2.78 -2.39)" style="fill:#e8a476;fill-rule:evenodd"/><path d="M150.82,128.09c-5-1.08-12.75-.32-17.7-1.25l-3.3,3.31-10.13,33.58,9.23,14.84,13.63-3,15.84-20.45,4.81-20.05Z" transform="translate(-2.78 -2.39)" style="fill:#c0d5ed;fill-rule:evenodd"/><path d="M137.13,117c-4.26,8.57-6,12.52-6.11,24.77,4-7.62,7.93-15,14.43-14.24C140.64,123.72,138.63,121.37,137.13,117Z" transform="translate(-2.78 -2.39)" style="fill:#d5e6fa;fill-rule:evenodd"/><path d="M170.22,106.29c-5.29,9.21-14.3,16.66-23.56,22.35,4.94,2.39,8,7.59,9.62,12,11.09-11.77,11.71-12.54,19.65-26.87C173.92,112.89,171.76,110.57,170.22,106.29Z" transform="translate(-2.78 -2.39)" style="fill:#d5e6fa;fill-rule:evenodd"/><path d="M147.71,127.84c-4.87-1-9.21.87-13.08,7.92l3.71,5.31c-3.6,13.73-10.68,16.78-13.89,25.9-2,5.82-.37,14.36-2.15,28.94l5.21,5.62c17-8.33,14.51-41.79,19.75-60,1.43-1.15,4-2.44,6.32-6.17C152,132.63,150,129.56,147.71,127.84Z" transform="translate(-2.78 -2.39)" style="fill:#4f6d91;fill-rule:evenodd"/><path d="M132.92,125.64c-38,23.57-36.28,1.29-49.32,50.93-11.71,17.56-18.42,24.34-20.72,37.83-2.06,12-2.43,18.15,1.33,22.51,5,5.84,30.24,10.42,40,14.75-6.38,24.85.67,4-7.12,27.74-1.39,4.24,17.69,8.39,17.69,8.39,1.45-6.66,2.79-12.79,4.17-17.48,1.05,7.13,1.85,13.49,2.52,19.15,0,0,82.75-7.24,82.71-8-.53-10.17-4-20.22-6.23-31.17L202.2,226l6.62-13.23c5.79-23.5,22-56.42,14-77.59-4.08-11.3-8.39-8-27-11.88-7.08-1.47-11.31-4.07-22.91-12.39-2.84,23.87-42.17,43.8-43.3,84.61l-2.21-.6C127.41,170.8,124.67,148.79,132.92,125.64Z" transform="translate(-2.78 -2.39)" style="fill:#1b1f26;fill-rule:evenodd"/><path d="M130,127.29c-4.42,2.52-8.71,5-11.87,6.71l-2.36,6.07,3.31-.2a16.75,16.75,0,0,0-4,3.79c-.37,9.69,4.72,46.75,11.38,64C123.6,187.69,122.46,146.93,130,127.29Z" transform="translate(-2.78 -2.39)" style="fill:#13151a;fill-rule:evenodd"/><path d="M133.17,125.18c-4.42,2.52-8.06,4.9-11.22,6.57l-2.81,6.82,3.21.4a22,22,0,0,0-4.36,4.58c-.37,9.7,3.72,39.34,7.36,56.77l6.62.81c7.8-29.46,23-47.17,44.52-67.78l-1.81-3.61,5.62.61c3.24-5,4.31-6.23,5.58-10.79a147.28,147.28,0,0,1-13-8.66c-2.84,23.87-42.17,43.8-43.3,84.61l-2.21-.6C127.41,170.8,124.92,148.34,133.17,125.18Z" transform="translate(-2.78 -2.39)" style="fill:#1b1f26;fill-rule:evenodd"/><path d="M133.17,125.18c-.89.51-1.75,1-2.58,1.51-6.43,15.41-6.93,50-2.78,68.76-.06-23.74-2.77-47.42,5.36-70.27ZM132,201.13c3.75-30.79,33.13-59.79,42.91-69.18l-1.8-3.61,5.61.6c3.15-4.85,4.25-6.14,5.47-10.38.59.36,1.17.69,1.72,1-1.27,4.56-2.34,5.78-5.58,10.79l-5.62-.61,1.81,3.61C155,154,139.77,171.67,132,201.13Z" transform="translate(-2.78 -2.39)" style="fill:#2b323d;fill-rule:evenodd"/><path d="M105.46,251.35l13.64,6.71c3.32-6.4,3.23-11.38,6.31-17.24,12.59-6.19,26.63-12.77,40.37-14.46,9.65-.77,16-2.1,26-10-10,12.46-11,10.18-25.56,12.85-7.37,1.36-15.12,5-19.59,7.23-5.49,3.93-9.33,6.42-18.71,6.79-2.85,5.94-4,9.63-7.22,17.94Z" transform="translate(-2.78 -2.39)" style="fill:#13151a;fill-rule:evenodd"/><path d="M129.82,227.39c10.61-1.45,22.9,1.3,33.79-1.7-3.89,5.11-19.4,7.27-24.75,12.37-3.33,3.18-6.52.76-12,.66C126.91,238.72,129.62,227.29,129.82,227.39Z" transform="translate(-2.78 -2.39)" style="fill:#e8a476;fill-rule:evenodd"/><path d="M125.41,226.39l4.91.6a117.23,117.23,0,0,0,.3,14.64c-3.2.07-6.42,0-9.62-.1C122.4,234.49,121.78,232.44,125.41,226.39Z" transform="translate(-2.78 -2.39)" style="fill:#c0d5ed;fill-rule:evenodd"/><path d="M115.59,197.51c-9.5-1.82-8.91-2.46-14.82,2.54C84,212.4,99,216.28,110,214.46Z" transform="translate(-2.78 -2.39)" style="fill:#e8a476;fill-rule:evenodd"/><path d="M100.85,165.63c-6,11.05,3.78,26.84-3.41,35.21-6.85,7.83-5.87,6.6-15.84,6.9,12.72,5.62,35.63,17.7,49.42,19.75-4.69-1.54-17.89-7.36-22.65-8.92l1.7-3.61c-1.09-1.33-23.45-1.38-14-9.49,4.06-4.07,6.2-7.05,12.4-10C99.38,189.1,98.78,173.26,100.85,165.63Z" transform="translate(-2.78 -2.39)" style="fill:#13151a;fill-rule:evenodd"/><path d="M187.12,139.32c18.93-3,15.93,22,12.51,29.2-3.36,7-13.31,42-19.73,52-24.84,10.79-47.58,10.19-72-2.05-.2-6.61,3.14-17.53,8-22.26,28.54-.2,52.36-8.65,63.41-34.52C182.3,154.66,178.38,148.3,187.12,139.32Z" transform="translate(-2.78 -2.39)" style="fill:#1b1f26;fill-rule:evenodd"/><path d="M187.12,139.32c-9.57,30.07,6.58,10.86-19.45,47.52-21.68,10.84-25.93,12-50.43,12-2.47,2.21-5.35,3.89-7.72,10.07,1.42-6.14,2.93-9.32,6.37-12.68,28.54-.2,52.36-8.65,63.41-34.52C182.3,154.66,178.38,148.3,187.12,139.32Z" transform="translate(-2.78 -2.39)" style="fill:#13151a;fill-rule:evenodd"/><path d="M205.26,283.16c-1-5.88-2.12-11.85-3.34-18.1-3.93-18.87-2-34.28,7.6-51.94,4.43-20.88,21.36-59,13.31-78-4.08-11.3-8.39-8-27-11.88-6.43-1.33-10.5-3.6-19.87-10.22l-.12.13c9.59,16.16,28.28,12.16,40,18.51,14,32.64-13.9,93.71-57.94,94.48,30.93,1.42,35.61-8.58,50.93-26.87-4.58,17.82-6.46,16.59-12.44,27.47l-3,23.46c2.18,11.32,4.1,22.85,5.77,34.46Z" transform="translate(-2.78 -2.39)" style="fill:#2b323d;fill-rule:evenodd"/><path d="M192.08,254.15c-13.1-.34-22.58-.76-35.69-1.2l-.8,14.64c22.12-.35,29.64-1.17,41.11,3.31-12.52-2.87-22.33-2.69-42.11-2.11l1.2-17.64c13.3-.56,22.39.55,35.69,1Z" transform="translate(-2.78 -2.39)" style="fill:#13151a;fill-rule:evenodd"/><path d="M119,270.37c.9,6.17,1.39,11.79,2.24,16.81l2.4.61c-.27-2.54-.53-5-.78-7.35-1.81-16.63,1.17-25.09,5-36.26C123.1,255.29,120.37,261.86,119,270.37Z" transform="translate(-2.78 -2.39)" style="fill:#2b323d;fill-rule:evenodd"/><path d="M136.33,107c2.31,2.25,7.9,7.28,9.15,8.1,2.88.75,12.15.75,15,0,1.78-.92,6.38-6.48,9.35-8.08.11-.94.26-1.84.44-2.66-8.58.32-25.82.32-34.4,0A23.88,23.88,0,0,1,136.33,107Z" transform="translate(-2.78 -2.39)" style="fill:#d49166;fill-rule:evenodd"/><path d="M132.72,90.62l1-12.05C130.38,76.27,127,68,124,70.48c-2.26,3.66,2.4,11.11,2.88,14.84C127.4,87.63,130.41,95.52,132.72,90.62Z" transform="translate(-2.78 -2.39)" style="fill:#e8a476;fill-rule:evenodd"/><path d="M173.11,90.62l-1-12.05c3.35-2.3,6.76-10.58,9.73-8.09,2.26,3.66-2.39,11.11-2.87,14.84C178.44,87.63,175.42,95.52,173.11,90.62Z" transform="translate(-2.78 -2.39)" style="fill:#f1b287;fill-rule:evenodd"/><path d="M130.16,81.2c-3.66-9-.71.32-.93,3.7C131.54,89.85,131.43,83.48,130.16,81.2Z" transform="translate(-2.78 -2.39)" style="fill:#d49166;fill-rule:evenodd"/><path d="M127.66,73c-3.53-4.11-4.57.68-2.39,4.41,1.88,3.94,1.89,3.72,2.54,8.23a18.35,18.35,0,0,0-2.15-8.72c-2.54-4.4-.11-7.17,2.26-2.36Z" transform="translate(-2.78 -2.39)" style="fill:#d49166;fill-rule:evenodd"/><path d="M176.16,81.2c3.65-9,.71.33.93,3.7C174.78,89.85,174.89,83.48,176.16,81.2Z" transform="translate(-2.78 -2.39)" style="fill:#d49166;fill-rule:evenodd"/><path d="M178.25,73c3.52-4.12,4.57.67,2.39,4.41-1.89,3.93-1.9,3.71-2.54,8.23a18.32,18.32,0,0,1,2.15-8.72c2.54-4.41.1-7.17-2.26-2.36Z" transform="translate(-2.78 -2.39)" style="fill:#e8a476;fill-rule:evenodd"/><path d="M153.37,114.88c-7.31.29-8.39-.6-13.15-6.07-2.23-2.14-6.23-4.33-7.21-6.67C131.86,95.75,130.49,86,128.62,79c1.48-10.94-3.33-25.63,5.25-34h0a25,25,0,0,1,8.1-4.71c9.62-3.51,22.31-2.18,30,4.68,8.53,8.34,3.8,23,5.28,33.88-1.86,7-3.2,16.73-4.33,23.11-1,2.35-4.95,4.57-7.17,6.74C161.16,113.9,160.34,115.05,153.37,114.88Z" transform="translate(-2.78 -2.39)" style="fill:#f1b287;fill-rule:evenodd"/><path d="M177.4,78.08c-1.87,7.22-3.21,17.15-4.37,23.67-1,2.39-5.14,4.68-7.37,6.9-2.73,2.7-3.21,4.38-5.34,5.24,2.83-6.25,6-11.61,8.28-18C171.47,89.59,176,85.79,177.4,78.08Z" transform="translate(-2.78 -2.39)" style="fill:#f5bc95;fill-rule:evenodd"/><path d="M148.57,93.16c-3.35-.23-3.49-2-3.07-3.61.71-2.64,3-1.22,3.23-6,.41-7.84.62-11.54-6.15-14.73l2.91-1.66c8.33,3,4.81,8.62,5,16.26-.57,5.36-2.93,3.91-3.86,6.53A2.38,2.38,0,0,0,148.57,93.16Z" transform="translate(-2.78 -2.39)" style="fill:#e8a476;fill-rule:evenodd"/><path d="M152.83,91.86c1.61,0,2.33-1.91,3.69-2.15,2.81-.66,3,2.33,1.09,2.93a15.27,15.27,0,0,1-2.9.13c-1.72.86-2.1.87-3.82,0-4.09.9-6.23-3.29-1.81-3.06C150.46,90,151.18,91.88,152.83,91.86Z" transform="translate(-2.78 -2.39)" style="fill:#e8a476;fill-rule:evenodd"/><path d="M157.28,90.42c.68,0,.64,1,.21,1.34-.64.48-1.88.29-2.52.63A3,3,0,0,1,157.28,90.42Z" transform="translate(-2.78 -2.39)" style="fill:#975b36;fill-rule:evenodd"/><path d="M148.31,90.42c-.67,0-.63,1-.2,1.34.64.48,1.88.29,2.52.63A3,3,0,0,0,148.31,90.42Z" transform="translate(-2.78 -2.39)" style="fill:#975b36;fill-rule:evenodd"/><path d="M155.3,87.4c.88,1.38.37,1.83-.62,2.74-1.56,1.93-4.11.25-4.82-1.53,2.76-3.11,1.1-16.27,2.63-17C154.1,71.42,153.57,84.65,155.3,87.4Z" transform="translate(-2.78 -2.39)" style="fill:#f5bc95;fill-rule:evenodd"/><path d="M143,99.81c3.24,2.52,5.41,5.56,10,4.56,4.42,1,6.74-2.16,10-4.56-4.28.88-7.06.15-9.69.24C150.45,100.15,147.75,101,143,99.81Z" transform="translate(-2.78 -2.39)" style="fill:#e8a476;fill-rule:evenodd"/><path d="M143.3,100.09c3.37,2.06,5.42,4.62,9.78,3.74,4.1.84,6.45-1.69,9.69-3.74C156.24,100,149.83,100,143.3,100.09Z" transform="translate(-2.78 -2.39)" style="fill:#edab82;fill-rule:evenodd"/><path d="M143.3,100.09c3.37,2.06,5.42,4.62,9.78,3.74,2.54.18,4.6.17,6.53-1.61-2.32,1.74-3.43,1.46-6.51,1.27-1.62.06-4.47.5-4.6-1.25-.06-.82.44-1.22,1.32-1.44,3.8,0,8.56.16,12.62-.74C156,100.13,149.73,100,143.3,100.09Z" transform="translate(-2.78 -2.39)" style="fill:#e6a67e;fill-rule:evenodd"/><path d="M156,98.3c2.22.49,3.68,1.57,7.11,1.57a68.25,68.25,0,0,1-20.28,0c4.54.33,6.7-3.11,10.14-1.08C154,98,154.68,98,156,98.3Z" transform="translate(-2.78 -2.39)" style="fill:#edab82;fill-rule:evenodd"/><path d="M160.92,99.7a14.3,14.3,0,0,0,2.21.17,68.25,68.25,0,0,1-20.28,0c4.34.18,6.15-2.41,9.52-1.51l0,0c-1.85-.43-4.45,1.47-1.24,1.29,2.35.5,2,.25,4.45.06C158.45,99.75,159.21,100.22,160.92,99.7Z" transform="translate(-2.78 -2.39)" style="fill:#e6a67e;fill-rule:evenodd"/><path d="M162.07,99.78c.34,0,.68.06,1.06.06a65.37,65.37,0,0,1-20.28,0C149.29,100.12,155.64,100.58,162.07,99.78Z" transform="translate(-2.78 -2.39)" style="fill:#de9e76;fill-rule:evenodd"/><path d="M155.7,98.52c1.87.42,3.73,1.09,5.13,1.24-1.64.27-2.77-.07-5.05-.25-1.36.16-3.38.57-4.45,0-3.42-.1.62-1.9,1.75-.59A2.6,2.6,0,0,1,155.7,98.52Z" transform="translate(-2.78 -2.39)" style="fill:#f1b188;fill-rule:evenodd"/><path d="M161.25,100.62c-2.83.83-5.85-.13-8.35.69-.62.15-2.68-.47-3.28.14-1.65,3,3.71,1.27,5.07,1.73C157.16,104,159.79,101.46,161.25,100.62Z" transform="translate(-2.78 -2.39)" style="fill:#f1b188;fill-rule:evenodd"/><path d="M138.19,77.14a6.08,6.08,0,0,0,2.31.73c-.72.59-9.69-.68-7-2.83C133.68,76.56,137.65,76.75,138.19,77.14Z" transform="translate(-2.78 -2.39)" style="fill:#e8a476;fill-rule:evenodd"/><path d="M146.48,75.24a9,9,0,0,0-3.17-1.95c-.28,0,2.11,1.75,2.61,2.81-1.8,0-7-2.89-8.28-2.37-1.94.6-5.38,4.27-4.15.77,1.35-2.09,7.09-1.9,8.89-2.41,2.43-1.88-7.71-4.41-10.52-3.24,3.09-4.82,7.19-.67,11.72.52C148,69.6,148.4,76.6,146.48,75.24Z" transform="translate(-2.78 -2.39)" style="fill:#e8a476;fill-rule:evenodd"/><path d="M146.6,75.11a7.29,7.29,0,0,0-7.11-3.26c-2.29-.28-5.15-.37-6.56,1.7-.21.49,2.51-1.35,2.4-1.22,1.37-.48,3.3-.08,4.72-.07C143.81,71.61,145,74,146.6,75.11Z" transform="translate(-2.78 -2.39)" style="fill:#d49166;fill-rule:evenodd"/><path d="M144.15,74.13c-3.67-2.07-7.39-.64-10.77,1.38,3.45.39,6.61,2.76,10.05,1.19.75-.29,1.21-.52,1.94-.19C147.84,77,145.23,75.08,144.15,74.13Z" transform="translate(-2.78 -2.39)" style="fill:#fefefe;fill-rule:evenodd"/><g style="clip-path:url(#aaddf462-1d0d-41eb-838a-f8747239be24)"><path d="M140.38,72.35a2.31,2.31,0,1,0-.15,4.61A2.31,2.31,0,1,0,140.38,72.35Z" transform="translate(-2.78 -2.39)" style="fill:#055473;fill-rule:evenodd"/><path d="M140.33,73.53a1.08,1.08,0,1,0-.07,2.16A1.08,1.08,0,1,0,140.33,73.53Z" transform="translate(-2.78 -2.39)" style="fill:#0a0001;fill-rule:evenodd"/><path d="M138.15,73.9c-1.24,3.4,5,3.88,4.41.36l-.83-.14c1,2.74-4.19,2.31-2.73-.24Z" transform="translate(-2.78 -2.39)" style="fill:#1787b3;fill-rule:evenodd"/><path d="M141.84,73.7a.49.49,0,1,0,0,1A.49.49,0,1,0,141.84,73.7Z" transform="translate(-2.78 -2.39)" style="fill:#fefefe;fill-rule:evenodd"/><path d="M139.07,74.85a.66.66,0,1,0,0,1.32A.66.66,0,1,0,139.07,74.85Z" transform="translate(-2.78 -2.39)" style="fill:#4abae6;fill-rule:evenodd"/><path d="M139.18,75.09a.33.33,0,1,0,0,.65A.33.33,0,1,0,139.18,75.09Z" transform="translate(-2.78 -2.39)" style="fill:#fefefe;fill-rule:evenodd"/></g><path d="M142.72,73.14a11.15,11.15,0,0,0-9.55,2.43c5.24-2.16,8.41-3.85,13.28.62C147,76.06,143.37,73.42,142.72,73.14Z" transform="translate(-2.78 -2.39)" style="fill:#3c1a18;fill-rule:evenodd"/><path d="M142.68,73.45c-3.25-.89-6.66.33-9.27,2.06,4.58-2.48,9.22-3.26,12.93.6A14.87,14.87,0,0,0,142.68,73.45Z" transform="translate(-2.78 -2.39)" style="fill:#0a0001;fill-rule:evenodd"/><path d="M134.49,75.78c3.08.41,5.83,2.51,9,1,1.05-.61,1.82-.11,2.7-.09-2.36-1-3.11.8-6.1.51C138.21,77,136.35,75.51,134.49,75.78Z" transform="translate(-2.78 -2.39)" style="fill:#7d371e;fill-rule:evenodd"/><path d="M147.61,69.37A3.24,3.24,0,0,0,146.54,68l.15.47a5.15,5.15,0,0,0-2.26-1.22,10.08,10.08,0,0,1,1.25,1.13c-3.11-3-8.29-3.54-12.1-2.4a6.67,6.67,0,0,1,1,0A4.75,4.75,0,0,0,131.25,69c2.66-2.77,5.36-1.32,9.14,0l-.84-.56a33.36,33.36,0,0,0,6.16,2.71C147.35,72.41,148.28,71,147.61,69.37Z" transform="translate(-2.78 -2.39)" style="fill:#1a150e;fill-rule:evenodd"/><path d="M166.94,77.13a6.12,6.12,0,0,1-2.32.73c.72.58,9.67-.68,7-2.83C171.42,76.54,167.48,76.74,166.94,77.13Z" transform="translate(-2.78 -2.39)" style="fill:#e8a476;fill-rule:evenodd"/><path d="M158.66,75.23a9,9,0,0,1,3.16-1.94c.28,0-2.1,1.74-2.6,2.8,1.8,0,7-2.88,8.26-2.37,1.93.61,5.37,4.27,4.14.78-1.34-2.09-7.07-1.9-8.87-2.41-2.43-1.88,7.69-4.4,10.5-3.24-3.09-4.8-7.18-.66-11.7.52C157.18,69.61,156.75,76.59,158.66,75.23Z" transform="translate(-2.78 -2.39)" style="fill:#e8a476;fill-rule:evenodd"/><path d="M158.53,75.1a7.3,7.3,0,0,1,7.1-3.25c2.29-.28,5.14-.37,6.55,1.69.2.49-2.51-1.34-2.39-1.21-1.37-.48-3.3-.08-4.72-.07C161.32,71.61,160.17,74,158.53,75.1Z" transform="translate(-2.78 -2.39)" style="fill:#d49166;fill-rule:evenodd"/><path d="M161,74.13c3.66-2.06,7.38-.65,10.75,1.37-3.44.39-6.59,2.76-10,1.19-.74-.29-1.2-.52-1.93-.19C157.31,77,159.9,75.07,161,74.13Z" transform="translate(-2.78 -2.39)" style="fill:#fefefe;fill-rule:evenodd"/><g style="clip-path:url(#a61bb06b-4a55-4e71-a4f2-92efc862063e)"><path d="M164.75,72.35a2.3,2.3,0,1,1,.15,4.59A2.3,2.3,0,1,1,164.75,72.35Z" transform="translate(-2.78 -2.39)" style="fill:#055473;fill-rule:evenodd"/><path d="M164.8,73.53a1.08,1.08,0,1,1,.06,2.15A1.08,1.08,0,1,1,164.8,73.53Z" transform="translate(-2.78 -2.39)" style="fill:#0a0001;fill-rule:evenodd"/><path d="M167,73.89c1.23,3.39-5,3.88-4.41.36l.83-.14c-1,2.74,4.18,2.31,2.72-.23Z" transform="translate(-2.78 -2.39)" style="fill:#1787b3;fill-rule:evenodd"/><path d="M163.29,73.69a.49.49,0,1,1,0,1A.49.49,0,1,1,163.29,73.69Z" transform="translate(-2.78 -2.39)" style="fill:#fefefe;fill-rule:evenodd"/><path d="M166.06,74.84a.66.66,0,1,1,0,1.32A.66.66,0,1,1,166.06,74.84Z" transform="translate(-2.78 -2.39)" style="fill:#4abae6;fill-rule:evenodd"/><path d="M165.94,75.08a.33.33,0,1,1,0,.65A.33.33,0,1,1,165.94,75.08Z" transform="translate(-2.78 -2.39)" style="fill:#fefefe;fill-rule:evenodd"/></g><path d="M162.41,73.13a11.14,11.14,0,0,1,9.53,2.43c-5.22-2.15-8.39-3.84-13.25.62C158.18,76.05,161.77,73.41,162.41,73.13Z" transform="translate(-2.78 -2.39)" style="fill:#3c1a18;fill-rule:evenodd"/><path d="M162.45,73.44c3.24-.88,6.65.34,9.25,2.06-4.56-2.47-9.2-3.25-12.9.6A15.34,15.34,0,0,1,162.45,73.44Z" transform="translate(-2.78 -2.39)" style="fill:#0a0001;fill-rule:evenodd"/><path d="M170.62,75.77c-3.07.41-5.82,2.5-8.94,1-1-.61-1.81-.11-2.69-.09,2.36-1,3.1.8,6.09.51C166.91,77,168.77,75.5,170.62,75.77Z" transform="translate(-2.78 -2.39)" style="fill:#7d371e;fill-rule:evenodd"/><path d="M157.53,69.37A3.28,3.28,0,0,1,158.6,68l-.15.47a5.17,5.17,0,0,1,2.25-1.22,10.57,10.57,0,0,0-1.24,1.13c3.1-3,8.27-3.53,12.07-2.4a8.55,8.55,0,0,0-.95,0,4.76,4.76,0,0,1,3.28,3.06c-2.66-2.77-5.35-1.32-9.12,0l.83-.55a33.58,33.58,0,0,1-6.15,2.7C157.79,72.4,156.87,71,157.53,69.37Z" transform="translate(-2.78 -2.39)" style="fill:#1a150e;fill-rule:evenodd"/><path d="M132.21,81.25c5.7-4.56,7.15-8.5,7.33-9.56a12.11,12.11,0,0,1-5.39,5.75c2.25-5.29,1.17-2.71,3.27-8.08-4.44,9.2-16,13.3-6.83,23.94-6.1-3.68-7.71-5.9-5.58-16.61-.77,2.53.46-7.81-.16-5.23.31-7.46-3.83,4.3-4.44-.2-5.85-43.52,48.48-34.79,58.7-24.11-12.52-10.36,4-1.77,4.61,23.79a34.73,34.73,0,0,1-.82-6.59c-3,10,3.67,11.53-2.15,21.22a32.32,32.32,0,0,0,.27-3.32c-.81,1.82-.81,5-2.86,7.42.43-4.43.59-4.22-3.76-9.63-4.78-6-3.3-12.87-6-21.19.51,4.25,1,8.42,1.4,12.69-2.34-13-.77-11.78-4.81-21-3.58,4.91-8.07,8.91-15.52,12.31C144.76,73.82,137.21,79.21,132.21,81.25Z" transform="translate(-2.78 -2.39)" style="fill:#4d423b;fill-rule:evenodd;opacity:0.2;mix-blend-mode:multiply"/><path d="M164.27,47.45c-6.93,8.36-8.71,9.64-15.15,14.27-3.59,6.84-7.24,14.4-17.38,19.63,7.57-5.85,10.12-11.13,13.38-21.61-2.71,5.37-5.22,10.32-9.66,15.86,2.4-5.29,4.62-10.49,6.88-15.86-3.74,5.24-10,16.12-13.29,19.12-3,2.68-5.38,9.08.65,13.94-6.51-3.68-8.22-5.89-5.95-16.6-.82,2.52-1.57,4.75-2.23,7.33.33-7.46-2-8.26-2.68-12.77C117.13,58.82,124,46.9,131.18,37.93c-2.31,1.49-4.53,4.49-7.48,9.22C133.47,25,147.45,25,162,32.77c-6.79-6.88-13.57-7.48-22.12-4.56,9.68-4.08,17.69-3.12,24,5.35,8,1.62,13.09,6.34,17.57,13.09-1.61-2.33-4.72-4.08-7.16-5.35,13,11.12,12.08,13,12.08,29.15a33.26,33.26,0,0,1-.88-6.6c-3.15,10,3.92,11.54-2.28,21.22a31.62,31.62,0,0,0,.29-3.32c-1.21,2.54-.75,4.29-6.81,9.17,4.18-6,.86-8.32-.73-10.18-5.11-6-3.05-14.06-5.94-22.39.54,4.25,1,8.43,1.49,12.69C168.9,57.45,169.27,58.11,164.27,47.45Z" transform="translate(-2.78 -2.39)" style="fill:#453929;fill-rule:evenodd"/><path d="M164.78,36.08c-2,17.75-1.63,14.49-16.06,25.18C153.65,47.9,152.31,43.15,164.78,36.08Z" transform="translate(-2.78 -2.39)" style="fill:#574733;fill-rule:evenodd"/><path d="M164.49,36.42c-3.92,9.41-6.22,14.92-14.08,24.3C161.43,51,163.09,47.75,164.49,36.42Z" transform="translate(-2.78 -2.39)" style="fill:#6e5a41;fill-rule:evenodd"/><path d="M137.21,76.68c12.53-10.88,15.25-39.8,27-40.85C144.85,30.56,149.3,61,137.21,76.68Z" transform="translate(-2.78 -2.39)" style="fill:#574733;fill-rule:evenodd"/><path d="M164.18,35.83c-16.86-4.6-16.22,21.23-23.07,34.23C147.71,64.37,147.81,34.21,164.18,35.83Z" transform="translate(-2.78 -2.39)" style="fill:#6e5a41;fill-rule:evenodd"/><path d="M166.76,36.33c-12.53-9.85-21.48-8.56-28.95-6.45,9.59-1.57,13.52-2.07,25.38,4.66-14.91-2.26-17.77,10.78-19.73,22.11,2.89-9.78,7.06-24.57,20.92-20.92-8-.58-10,10.29-12,16.56,2.47-5.43,6-17.47,13.18-15.67C167.38,49.88,160.28,54,151,61.91,161.9,54.89,167.76,49.93,166.76,36.33Z" transform="translate(-2.78 -2.39)" style="fill:#33291c;fill-rule:evenodd"/><path d="M156.78,38.9c-7.89,17.49-7.52,30.7-23.8,41.55C152.22,63.51,144.81,60.05,156.78,38.9Z" transform="translate(-2.78 -2.39)" style="fill:#6e5a41;fill-rule:evenodd"/><path d="M161.27,38.75c-6.1,3.46-6.92,11.9-12,21.87C153.62,54.68,154.41,46.44,161.27,38.75Z" transform="translate(-2.78 -2.39)" style="fill:#6e5a41;fill-rule:evenodd"/><path d="M164.54,36.08c-6.1,3.46-8,16.94-14.87,23.84C158.18,54,157.68,43.76,164.54,36.08Z" transform="translate(-2.78 -2.39)" style="fill:#856d50;fill-rule:evenodd"/><path d="M162.18,35.43C145,34,145.52,60,137.1,73.11,148.49,56.19,144.3,37.39,162.18,35.43Z" transform="translate(-2.78 -2.39)" style="fill:#856d50;fill-rule:evenodd"/><path d="M163,34.84c-23.65-7.91-15.63,30.76-35.1,42.63,13.1-17.3,8.19-27.22,16.46-39.86-6.61,8.81-8.57,17.83-12.89,30.34C133.06,43.48,137.78,22.86,163,34.84Z" transform="translate(-2.78 -2.39)" style="fill:#574733;fill-rule:evenodd"/><path d="M146.32,33.94c-8.91,17.46-8.52,33.55-22,46.31C137.12,64.28,133.81,52.28,146.32,33.94Z" transform="translate(-2.78 -2.39)" style="fill:#33291c;fill-rule:evenodd"/><path d="M161.41,34C136,24.21,134.41,46.43,132.29,65,136.65,49,138,26.22,161.41,34Z" transform="translate(-2.78 -2.39)" style="fill:#6e5a41;fill-rule:evenodd"/><path d="M156.13,33.25c-16.76-3.15-13.51,24.28-26,42.34C144.23,57.87,142.35,33.56,156.13,33.25Z" transform="translate(-2.78 -2.39)" style="fill:#6e5a41;fill-rule:evenodd"/><path d="M162,34.44c-16.94-5-18.26,15.48-22.71,23.1C145.12,36.9,149.23,29.45,162,34.44Z" transform="translate(-2.78 -2.39)" style="fill:#856d50;fill-rule:evenodd"/><path d="M157.77,32.9c-18.57-6.16-23.16,12.85-24.54,20.68C133,42.16,140.05,25.83,157.77,32.9Z" transform="translate(-2.78 -2.39)" style="fill:#856d50;fill-rule:evenodd"/><path d="M142.15,32.06c-14.88,8.13-12.51,18.09-14.87,32.22-2.61,11.06-7.17,19-.69,24.3-4.27-6.5,1.36-13.32,4-24.16S130.77,39.68,142.15,32.06Z" transform="translate(-2.78 -2.39)" style="fill:#574733;fill-rule:evenodd"/><path d="M132.73,49.11C131.38,71.78,121.5,73.52,124.8,84,120.44,72.72,130.2,68.16,132.73,49.11Z" transform="translate(-2.78 -2.39)" style="fill:#6e5a41;fill-rule:evenodd"/><path d="M122.32,79.25c-6.64-24.89,7.74-50.64,29.05-48.08-16.83-1-27.43,19.34-28.45,36.48,3.56-7.45,4.44-11,6-19.13C127.79,61.87,126.28,66.79,122.32,79.25Z" transform="translate(-2.78 -2.39)" style="fill:#33291c;fill-rule:evenodd"/><path d="M124.45,45.89c9-19.63,20.79-19.6,37.63-12.1C141.94,27.35,135.08,29.18,124.45,45.89Z" transform="translate(-2.78 -2.39)" style="fill:#241d13;fill-rule:evenodd"/><path d="M122,79.3c-5.26-19.77-1.08-28.65,14.28-44C124.36,50,117.94,58.06,122,79.3Z" transform="translate(-2.78 -2.39)" style="fill:#1a150e;fill-rule:evenodd"/><path d="M121.73,82.28c-.71-15.26,4.89-12.77,6.14-31C128.1,65.26,124.13,71.31,121.73,82.28Z" transform="translate(-2.78 -2.39)" style="fill:#1a150e;fill-rule:evenodd"/><path d="M122,71.87c.15-16.5.7-13.92,8.33-28.16C125.42,55.72,124.51,59,122,71.87Z" transform="translate(-2.78 -2.39)" style="fill:#1a150e;fill-rule:evenodd"/><path d="M151.49,31.19c-21.56-2.41-20.68,19.7-23.69,33C132.6,50.68,129.79,30.86,151.49,31.19Z" transform="translate(-2.78 -2.39)" style="fill:#856d50;fill-rule:evenodd"/><path d="M164.43,34.09c5.64.36,9.75,4.23,15.47,10.66C174.77,40.9,169.67,37.7,164.43,34.09Z" transform="translate(-2.78 -2.39)" style="fill:#574733;fill-rule:evenodd"/><path d="M167.65,37.31c5,14.6,3.5,33.15,10.12,42.44-3-8.51,3.54-13.79.2-26.77,3.7,5.63,4.36,9.6,4.16,15.27C190.39,51.13,180.59,51.06,167.65,37.31Z" transform="translate(-2.78 -2.39)" style="fill:#574733;fill-rule:evenodd"/><path d="M183,66.55C185.1,52,175.22,49,168.75,37.92,179.87,47.69,187,55.92,183,66.55Z" transform="translate(-2.78 -2.39)" style="fill:#6e5a41;fill-rule:evenodd"/><path d="M183.18,64.67c2.12-14.59-5.58-18.2-14.43-26.75C181.46,46.1,187.21,54,183.18,64.67Z" transform="translate(-2.78 -2.39)" style="fill:#856d50;fill-rule:evenodd"/><path d="M167.55,38c.76,9.24,1,14,2.48,23.79C166.38,51,166.37,48.61,167.55,38Z" transform="translate(-2.78 -2.39)" style="fill:#6e5a41;fill-rule:evenodd"/><path d="M169.74,43c6.13,18.66.29,26.43,9.62,39.37C168.16,73.58,172.75,57.33,169.74,43Z" transform="translate(-2.78 -2.39)" style="fill:#6e5a41;fill-rule:evenodd"/><path d="M168.35,37.81c9.1,11.21,13.92,21,8.23,38.57C177.75,59.11,174.18,50.21,168.35,37.81Z" transform="translate(-2.78 -2.39)" style="fill:#6e5a41;fill-rule:evenodd"/><path d="M169,39.14c7.69,9.47,12.45,20.06,7.65,34.86C180,61.3,177.68,50.51,169,39.14Z" transform="translate(-2.78 -2.39)" style="fill:#856d50;fill-rule:evenodd"/><path d="M177.47,50c5.27,12.91,3.57,17.09,2.09,22.84s1.81,9.71.39,13.35c2.05-3.85,2.34-4.65,3.47-11-1,7.89.32,9-5.56,14.47,3.64-4.75-2.08-8.21-.28-16.33C179.4,65.05,180.35,61.45,177.47,50Z" transform="translate(-2.78 -2.39)" style="fill:#33291c;fill-rule:evenodd"/><path d="M180,57.64c1.41,10.55-.78,16.3.89,26.57.55-3.69,1.1-7.19,1.49-10.91,2.06,3,2.21,5.62,2,9.62,2.26-4.62-.45-10.41.6-18.74l-2.78,5.65C181,65.72,180.94,61.81,180,57.64Z" transform="translate(-2.78 -2.39)" style="fill:#6e5a41;fill-rule:evenodd"/><path d="M183.86,82.63c1.24-5.64-.46-9.3-1-13.68C185.77,73.32,186.29,77.71,183.86,82.63Z" transform="translate(-2.78 -2.39)" style="fill:#856d50;fill-rule:evenodd"/><path d="M180.73,82.58c2.43-5.44-.34-8.36.21-12.74C178,74.21,182.36,76.62,180.73,82.58Z" transform="translate(-2.78 -2.39)" style="fill:#856d50;fill-rule:evenodd"/><path d="M129,78.9c4.67,7.88,8.64,17,13.22,25.24a31.35,31.35,0,0,1,.12-4.3.73.73,0,0,1,.29.15h-.17c3.53,2.74,5.6,5.63,10.56,4.63,4.68,1,7.14-2,10.5-4.77a31,31,0,0,1,.12,4.28C168,96.49,171.48,88,176,80.84l.79.79c-6.33,14.48,2.25,19.11-11.5,27.48-2.7,2.8-3.66,4.87-6.78,5.41a58.91,58.91,0,0,1-10.38.13c-4.64-.63-3.81-2.08-9.64-7.3-1.58-1.42-5.08-3.36-6-6.09-1.33-3.94-.37-14.16-4.3-21.56l.79-.8Zm13.36,20.81c4.05.39,7.29-3.32,10.61-1.13,3.3-2.2,6.51,1.54,10.53,1.12-.45-2.84-2-1.74-6.54-5-2.2-1.6-.42-.82-4-.5-3.36-.3-1.87-1.1-3.85.37C144.47,98,142.84,96.83,142.38,99.71Z" transform="translate(-2.78 -2.39)" style="fill:#1a150e;fill-rule:evenodd;opacity:0.30000000000000004"/><path d="M128.22,79.72c5.6,9.41.13,23.21,11.56,28.57,1.59,1.38,4.71,6,6.88,6-5.33-5.4-7-11.74-9.3-18.6-2.77-6-6.39-9.23-8.63-16.45Z" transform="translate(-2.78 -2.39)" style="fill:#1a150e;fill-rule:evenodd;opacity:0.30000000000000004"/><path d="M176.85,81.43c-4.85,11.44,1,20.23-11.19,27.22-2.73,2.7-3.21,4.38-5.34,5.24,2.83-6.25,6-11.61,8.28-18,2.13-5.19,6.48-8.82,7.71-14.83Z" transform="translate(-2.78 -2.39)" style="fill:#c29371;fill-rule:evenodd"/></g><circle cx="147.26" cy="147.26" r="142.26" style="fill:none;stroke:#edf9f8;stroke-miterlimit:10;stroke-width:10px"/></g></g></svg>